<?xml version="1.0" encoding="UTF-8"?>
<?xml-stylesheet type="text/css" href="../css/style.css"?>

<svg id="scene3SVG" xmlns="http://www.w3.org/2000/svg" viewBox="0 0 1920 1080">
  <g id="scene3Wrapper">
    <rect id="bg" x=".39" y="-.52" width="1919.61" height="1080.55" stroke="#000" stroke-miterlimit="10" stroke-width=".75"/>
  <polygon id="star-15" points="620.41 450.89 604.54 442.22 587.45 448.83 591.9 432.84 579.48 420.55 598.1 419.34 607.53 405.13 614.58 420.37 632.82 423.88 618.56 434.51 620.41 450.89" fill="#fff" stroke="#fff" stroke-miterlimit="10"/>
  <polygon id="star-14" points="632.91 763.35 649.09 792.26 685.27 796.9 659.09 819.4 665.27 851.18 632.91 836.18 600.54 851.18 606.72 819.4 580.54 796.9 616.72 792.26 632.91 763.35" fill="#fff" stroke="#fff" stroke-miterlimit="10"/>
  <polygon id="star-13" points="1172.06 347.03 1132.91 330.31 1095.09 349.27 1101.02 311.27 1068.89 285.42 1111.71 278.65 1129.66 243.71 1150.19 277.53 1193.43 281.79 1163.29 309.46 1172.06 347.03" fill="#fff" stroke="#fff" stroke-miterlimit="10"/>
  <polygon id="star-12" points="1480.41 116.24 1455.19 105.55 1430.91 117.8 1434.65 93.35 1413.93 76.77 1441.45 72.35 1452.93 49.86 1466.2 71.57 1494.02 74.25 1474.69 92.09 1480.41 116.24" fill="#fff" stroke="#fff" stroke-miterlimit="10"/>
  <polygon id="star-11" points="1303.64 636.8 1281.7 624.55 1257.82 633.54 1264.25 611.36 1247.18 594.12 1273.09 592.66 1286.41 573.01 1295.99 594.28 1321.3 599.38 1301.32 614 1303.64 636.8" fill="#fff" stroke="#fff" stroke-miterlimit="10"/>
  <polygon id="star-10" points="1867.59 803.11 1841.75 796.04 1820.5 810.81 1820.14 786.95 1797.65 773.69 1823.26 766.02 1830.61 743.06 1846.81 762.17 1873.84 761.24 1858.24 780.73 1867.59 803.11" fill="#fff" stroke="#fff" stroke-miterlimit="10"/>
  <polygon id="star-9" points="1859.52 213.66 1832.43 249.44 1850.49 289.4 1803.53 277.73 1766 305.23 1764.07 262.25 1722.82 239.28 1768.59 224.37 1780.61 182.68 1810.83 216.46 1859.52 213.66" fill="#fff" stroke="#fff" stroke-miterlimit="10"/>
  <polygon id="star-8" points="186.87 119.62 164.93 107.38 141.06 116.37 147.49 94.19 130.41 76.94 156.32 75.48 169.64 55.83 179.23 77.11 204.54 82.21 184.55 96.82 186.87 119.62" fill="#fff" stroke="#fff" stroke-miterlimit="10"/>
  <polygon id="star-7" points="171.52 829.2 146.52 818.6 122.43 830.75 126.14 806.51 105.6 790.07 132.89 785.69 144.28 763.37 157.44 784.91 185.02 787.56 165.86 805.25 171.52 829.2" fill="#fff" stroke="#fff" stroke-miterlimit="10"/>
  <g id="red">
    <ellipse cx="775.39" cy="188.39" rx="149.83" ry="132.11" fill="#ba2222" stroke-width="0"/>
    <ellipse cx="719.48" cy="174.59" rx="11.18" ry="9.86" fill="#f91515" stroke-width="0"/>
    <ellipse cx="844.71" cy="154.87" rx="24.6" ry="21.69" fill="#f91515" stroke-width="0"/>
    <ellipse cx="820.11" cy="267.27" rx="13.42" ry="11.83" fill="#f91515" stroke-width="0"/>
    <ellipse cx="788.81" cy="216" rx="13.42" ry="11.83" fill="#f91515" stroke-width="0"/>
    <ellipse cx="761.97" cy="105.58" rx="13.42" ry="11.83" fill="#f91515" stroke-width="0"/>
    <ellipse cx="719.79" cy="260.49" rx="24.6" ry="21.69" fill="#f91515" stroke-width="0"/>
  </g>
  <g id="blue">
    <ellipse cx="1602.77" cy="588.73" rx="149.83" ry="132.11" fill="#2f7fc1" stroke-width="0"/>
    <ellipse cx="1546.87" cy="574.93" rx="11.18" ry="9.86" fill="#16ddf7" stroke-width="0"/>
    <ellipse cx="1672.1" cy="555.21" rx="24.6" ry="21.69" fill="#16ddf7" stroke-width="0"/>
    <ellipse cx="1647.5" cy="667.6" rx="13.42" ry="11.83" fill="#16ddf7" stroke-width="0"/>
    <ellipse cx="1616.19" cy="616.34" rx="13.42" ry="11.83" fill="#16ddf7" stroke-width="0"/>
    <ellipse cx="1589.35" cy="505.92" rx="13.42" ry="11.83" fill="#16ddf7" stroke-width="0"/>
    <ellipse cx="1547.18" cy="660.82" rx="24.6" ry="21.69" fill="#16ddf7" stroke-width="0"/>
  </g>
  <g id="yellow">
    <ellipse cx="319.21" cy="537.38" rx="149.83" ry="132.11" fill="#d1c23b" stroke-width="0"/>
    <ellipse cx="307.46" cy="548.54" rx="18.49" ry="264" transform="translate(-319.95 506.26) rotate(-56.87)" fill="#f4b519" stroke-width="0"/>
  </g>
  <g id="scene3-rocket">
    <g>
      <path d="m960.51,413.47l-36.58,55.86c-1.84,2.81.18,6.54,3.53,6.54h73.16c3.36,0,5.37-3.73,3.53-6.54l-36.58-55.86c-1.67-2.55-5.4-2.55-7.07,0Z" fill="#e53e3e" stroke-width="0"/>
      <path d="m1001.12,549.57c18.41,8.31,37.12,17.22,50.56,31.08,2.65,2.73,5.1,5.69,6.53,9.05,1.3,3.05,1.72,6.33,2.14,9.57,1.05,8.29,2.11,16.61,2.02,24.96-9.18-5.74-18.36-11.48-27.53-17.22-9.89-6.19-20.49-12.6-32.6-13.22" fill="#e53e3e" stroke-width="0"/>
      <path d="m927.26,549.21c-18.41,8.31-37.12,17.22-50.56,31.08-2.65,2.73-5.1,5.69-6.53,9.05-1.3,3.05-1.72,6.33-2.14,9.57-1.05,8.29-2.11,16.61-2.02,24.96,9.18-5.74,18.36-11.48,27.53-17.22,9.89-6.19,20.49-12.6,32.6-13.22" fill="#e53e3e" stroke-width="0"/>
      <rect x="944.7" y="635.19" width="38.25" height="11.24" rx="2.39" ry="2.39" fill="#e6e7e8" stroke-width="0"/>
      <path d="m923.18,471.49h81.68v150.33c0,9.09-7.38,16.46-16.46,16.46h-48.76c-9.09,0-16.46-7.38-16.46-16.46v-150.33h0Z" fill="#9eadb7" stroke-width="0"/>
      <g>
        <ellipse cx="963.82" cy="515.75" rx="25.6" ry="22.57" fill="#231f20" stroke-width="0"/>
        <ellipse cx="964.37" cy="515.9" rx="18.33" ry="16.17" fill="#2331e2" stroke-width="0"/>
      </g>
    </g>
    <g>
      <path d="m982.53,650.32c3.59,2.22,8.87,2.55,12.21,5.06,9.19,6.92,19.28,12.88,28.44,19.84,9.16,6.96,17.52,15.14,21.98,25.05-18.46-4.79-36.56-10.65-54.15-17.52,2.59,5.04,1.09,10.95-1.1,16.13-2.19,5.18-5.08,10.32-5.19,15.85-6.3-10.31-12.01-20.9-17.08-31.72-5.02,6.84-10.04,13.68-15.06,20.52-2.35-7.13-3.13-14.66-2.3-22.05-12.8,4.01-26.16,6.61-39.67,7.74-.43-.49-.85-.99-1.28-1.48,12.73-12.66,25.1-25.6,37.08-38.81,4.12-.88,6.97-1.47,10.41-3.66,9.55,1.37,17.83.15,25.75,5.05Z" fill="#d22" stroke="#d22" stroke-miterlimit="10" stroke-width="2"/>
      <path d="m977.95,654.37c2.59,1.6,6.41,1.84,8.82,3.65,6.65,5,13.94,9.31,20.56,14.34,6.62,5.03,12.66,10.94,15.88,18.1-13.34-3.46-26.43-7.7-39.14-12.67,1.87,3.64.79,7.91-.8,11.66-1.58,3.75-3.67,7.46-3.75,11.46-4.56-7.45-8.68-15.1-12.35-22.93-3.63,4.94-7.26,9.89-10.89,14.83-1.7-5.16-2.26-10.6-1.66-15.94-9.25,2.9-18.91,4.78-28.68,5.6-.31-.36-.62-.72-.92-1.07,9.2-9.15,18.14-18.5,26.8-28.06,2.97-.64,5.04-1.06,7.52-2.64,6.9.99,12.89.11,18.61,3.65Z" fill="#db9523" stroke="#db6d23" stroke-miterlimit="10" stroke-width="2"/>
    </g>
  </g>
  <g id="tilt-to-explore">
    <path d="m1275.89,993v-40.02h-11.36v-4.98h34.02v4.98h-11.36v40.02h-11.29Z" fill="#fff" stroke-width="0"/>
    <path d="m1304.2,952.98v-4.98h11.36v4.98h-11.36Zm0,40.02v-34.98h11.36v34.98h-11.36Z" fill="#fff" stroke-width="0"/>
    <path d="m1326.86,993v-45h11.36v45h-11.36Z" fill="#fff" stroke-width="0"/>
    <path d="m1355.23,948h11.29v10.02h5.72v4.98h-5.72v19.98c0,1.64.61,2.89,1.84,3.75s2.34,1.29,3.33,1.29h.54v4.98h-5.72c-3.08,0-5.74-.98-7.96-2.94-2.22-1.96-3.33-4.32-3.33-7.08v-19.98h-5.72v-4.98h5.72v-10.02Z" fill="#fff" stroke-width="0"/>
    <path d="m1406.27,948h11.29v10.02h5.72v4.98h-5.72v19.98c0,1.64.61,2.89,1.84,3.75s2.34,1.29,3.33,1.29h.54v4.98h-5.72c-3.08,0-5.74-.98-7.96-2.94-2.22-1.96-3.33-4.32-3.33-7.08v-19.98h-5.72v-4.98h5.72v-10.02Z" fill="#fff" stroke-width="0"/>
    <path d="m1445.94,958.02h11.36c3.08,0,5.74.98,7.96,2.94,2.22,1.96,3.33,4.3,3.33,7.02v15c0,2.72-1.11,5.07-3.33,7.05-2.22,1.98-4.88,2.97-7.96,2.97h-11.36c-3.09,0-5.75-.98-8-2.94-2.25-1.96-3.37-4.32-3.37-7.08v-15c0-2.72,1.12-5.06,3.37-7.02,2.25-1.96,4.91-2.94,8-2.94Zm0,9.96v15c0,1.36.55,2.54,1.67,3.54,1.11,1,2.44,1.5,3.98,1.5s2.94-.5,4.05-1.5c1.11-1,1.67-2.18,1.67-3.54v-15c0-1.36-.56-2.53-1.67-3.51-1.11-.98-2.46-1.47-4.05-1.47s-2.87.49-3.98,1.47c-1.11.98-1.67,2.15-1.67,3.51Z" fill="#fff" stroke-width="0"/>
    <path d="m1531,978h-22.66v4.98c0,1.36.55,2.54,1.67,3.54,1.11,1,2.44,1.5,3.98,1.5h5.72c3.77,0,5.65-1.68,5.65-5.04h5.65c-.86,6.68-4.63,10.02-11.3,10.02h-11.36c-3.09,0-5.75-.98-8-2.94-2.25-1.96-3.37-4.32-3.37-7.08v-15c0-2.72,1.12-5.06,3.37-7.02,2.25-1.96,4.91-2.94,8-2.94h11.36c3.08,0,5.74.98,7.96,2.94,2.22,1.96,3.33,4.3,3.33,7.02v10.02Zm-22.66-4.98h11.36v-5.04c0-1.36-.56-2.53-1.67-3.51-1.11-.98-2.46-1.47-4.05-1.47s-2.87.49-3.98,1.47c-1.11.98-1.67,2.15-1.67,3.51v5.04Z" fill="#fff" stroke-width="0"/>
    <path d="m1542.36,993v-7.5c0-2.96.95-5.27,2.86-6.93s4.74-2.69,8.51-3.09c-3.77-.36-6.6-1.38-8.51-3.06s-2.86-3.98-2.86-6.9v-7.5h11.36v9.96c0,1.4.55,2.59,1.67,3.57,1.11.98,2.44,1.47,3.98,1.47s2.94-.49,4.05-1.47c1.11-.98,1.67-2.17,1.67-3.57v-9.96h11.3v7.5c0,2.92-.94,5.22-2.82,6.9-1.88,1.68-4.71,2.7-8.47,3.06,3.77.4,6.59,1.44,8.47,3.12,1.88,1.68,2.82,3.98,2.82,6.9v7.5h-11.3v-10.02c0-1.36-.56-2.53-1.67-3.51-1.11-.98-2.46-1.47-4.05-1.47s-2.87.49-3.98,1.47c-1.11.98-1.67,2.15-1.67,3.51v10.02h-11.36Z" fill="#fff" stroke-width="0"/>
    <path d="m1587.75,958.02h11.36v4.98c0-1.68.48-2.93,1.43-3.75.95-.82,2.36-1.23,4.22-1.23h5.72c3.08,0,5.74.98,7.96,2.94,2.22,1.96,3.33,4.3,3.33,7.02v15c0,2.76-1.11,5.12-3.33,7.08-2.22,1.96-4.88,2.94-7.96,2.94h-11.36v10.02h-11.36v-45Zm11.36,30h5.65c1.59,0,2.94-.49,4.05-1.47,1.11-.98,1.67-2.17,1.67-3.57v-15c0-1.36-.56-2.53-1.67-3.51-1.11-.98-2.46-1.47-4.05-1.47s-2.87.49-3.98,1.47c-1.11.98-1.67,2.15-1.67,3.51v20.04Z" fill="#fff" stroke-width="0"/>
    <path d="m1633.13,993v-45h11.36v45h-11.36Z" fill="#fff" stroke-width="0"/>
    <path d="m1667.16,958.02h11.36c3.08,0,5.74.98,7.96,2.94,2.22,1.96,3.33,4.3,3.33,7.02v15c0,2.72-1.11,5.07-3.33,7.05-2.22,1.98-4.88,2.97-7.96,2.97h-11.36c-3.09,0-5.75-.98-8-2.94-2.25-1.96-3.37-4.32-3.37-7.08v-15c0-2.72,1.12-5.06,3.37-7.02,2.25-1.96,4.91-2.94,8-2.94Zm0,9.96v15c0,1.36.55,2.54,1.67,3.54,1.11,1,2.44,1.5,3.98,1.5s2.94-.5,4.05-1.5c1.11-1,1.67-2.18,1.67-3.54v-15c0-1.36-.56-2.53-1.67-3.51-1.11-.98-2.46-1.47-4.05-1.47s-2.87.49-3.98,1.47c-1.11.98-1.67,2.15-1.67,3.51Z" fill="#fff" stroke-width="0"/>
    <path d="m1712.54,993h-11.36v-34.98h11.36v9.96c.45-3.32,1.62-5.81,3.5-7.47,1.88-1.66,4.5-2.49,7.86-2.49h5.65v9.96h-11.36c-1.54,0-2.87.49-3.98,1.47-1.11.98-1.67,2.17-1.67,3.57v19.98Z" fill="#fff" stroke-width="0"/>
    <path d="m1769.23,978h-22.66v4.98c0,1.36.55,2.54,1.67,3.54,1.11,1,2.44,1.5,3.98,1.5h5.72c3.77,0,5.65-1.68,5.65-5.04h5.65c-.86,6.68-4.63,10.02-11.3,10.02h-11.36c-3.09,0-5.75-.98-8-2.94-2.25-1.96-3.37-4.32-3.37-7.08v-15c0-2.72,1.12-5.06,3.37-7.02,2.25-1.96,4.91-2.94,8-2.94h11.36c3.08,0,5.74.98,7.96,2.94,2.22,1.96,3.33,4.3,3.33,7.02v10.02Zm-22.66-4.98h11.36v-5.04c0-1.36-.56-2.53-1.67-3.51-1.11-.98-2.46-1.47-4.05-1.47s-2.87.49-3.98,1.47c-1.11.98-1.67,2.15-1.67,3.51v5.04Z" fill="#fff" stroke-width="0"/>
    <path d="m1786.31,978v-30h11.29v30h-11.29Zm0,15v-10.02h11.29v10.02h-11.29Z" fill="#fff" stroke-width="0"/>
  </g>
  <polygon id="star-6" points="1611.14 916.38 1589.2 904.13 1565.32 913.12 1571.75 890.94 1554.68 873.7 1580.59 872.24 1593.91 852.59 1603.49 873.87 1628.8 878.97 1608.82 893.58 1611.14 916.38" fill="#8e8e8e" opacity=".54" stroke-width="0"/>
  <polygon id="star-5" points="1396.38 363.81 1374.45 351.57 1350.57 360.56 1357 338.38 1339.93 321.13 1365.84 319.67 1379.16 300.02 1388.74 321.3 1414.05 326.4 1394.06 341.01 1396.38 363.81" fill="#8e8e8e" opacity=".54" stroke-width="0"/>
  <polygon id="star-4" points="1187.59 916.82 1165.66 904.57 1141.78 913.56 1148.21 891.39 1131.14 874.14 1157.05 872.68 1170.37 853.03 1179.95 874.31 1205.26 879.41 1185.27 894.02 1187.59 916.82" fill="#8e8e8e" opacity=".54" stroke-width="0"/>
  <polygon id="star-3" points="363.87 980.82 341.94 968.57 318.06 977.56 324.49 955.39 307.42 938.14 333.33 936.68 346.65 917.03 356.23 938.31 381.54 943.41 361.55 958.02 363.87 980.82" fill="#8e8e8e" opacity=".54" stroke-width="0"/>
  <polygon id="star-2" points="508.83 260.56 486.89 248.31 463.02 257.3 469.45 235.13 452.37 217.88 478.28 216.42 491.6 196.77 501.19 218.05 526.5 223.15 506.51 237.76 508.83 260.56" fill="#8e8e8e" opacity=".54" stroke-width="0"/>
  <polygon id="star-1" points="266.73 323.28 244.8 311.03 220.92 320.02 227.35 297.84 210.27 280.6 236.18 279.14 249.51 259.49 259.09 280.76 284.4 285.87 264.41 300.48 266.73 323.28" fill="#8e8e8e" opacity=".54" stroke-width="0"/>
  </g>
</svg>