<?xml version="1.0" encoding="UTF-8"?>
<?xml-stylesheet type="text/css" href="../css/style.css"?>

<svg id="scene2SVG" xmlns="http://www.w3.org/2000/svg" viewBox="0 0 1920 1080">
  <g id="scene2Wrapper">
    <g id="bg">
    <rect x="-.38" y=".35" width="1920.38" height="1079.65" fill="#2196f7" stroke="#000" stroke-miterlimit="10" stroke-width=".75"/>
    <rect x=".53" y="660.85" width="1919.47" height="417.67" fill="#6b6b6b" stroke-width="0"/>
    <rect id="rocket-floor" opacity="0" x="508.36" y="781.03" width="1002.24" height="74.87" fill="#3c3e3f" stroke-width="0"/>
    <g id="rocket-stand" opacity="0">
      <rect x="394.27" y="117.09" width="116.33" height="736.84" fill="none" stroke="#9eadb7" stroke-miterlimit="10" stroke-width="12"/>
      <g>
        <line x1="399.28" y1="121.03" x2="508.36" y2="191.95" fill="none" stroke="#999" stroke-miterlimit="10" stroke-width="12"/>
        <line x1="505.91" y1="120.18" x2="396.83" y2="191.11" fill="none" stroke="#999" stroke-miterlimit="10" stroke-width="12"/>
        <line x1="396.51" y1="121.03" x2="508.36" y2="121.03" fill="none" stroke="#999" stroke-miterlimit="10" stroke-width="12"/>
        <line x1="398.74" y1="121.03" x2="398.74" y2="191.95" fill="none" stroke="#999" stroke-miterlimit="10" stroke-width="12"/>
        <line x1="508.36" y1="191.95" x2="396.51" y2="191.95" fill="none" stroke="#999" stroke-miterlimit="10" stroke-width="12"/>
        <line x1="506.13" y1="121.03" x2="506.13" y2="191.95" fill="none" stroke="#999" stroke-miterlimit="10" stroke-width="12"/>
      </g>
      <g>
        <line x1="399.13" y1="192.31" x2="508.21" y2="263.24" fill="none" stroke="#999" stroke-miterlimit="10" stroke-width="12"/>
        <line x1="505.75" y1="191.47" x2="396.67" y2="262.39" fill="none" stroke="#999" stroke-miterlimit="10" stroke-width="12"/>
        <line x1="396.35" y1="192.31" x2="508.21" y2="192.31" fill="none" stroke="#999" stroke-miterlimit="10" stroke-width="12"/>
        <line x1="398.59" y1="192.31" x2="398.59" y2="263.24" fill="none" stroke="#999" stroke-miterlimit="10" stroke-width="12"/>
        <line x1="508.21" y1="263.24" x2="396.35" y2="263.24" fill="none" stroke="#999" stroke-miterlimit="10" stroke-width="12"/>
        <line x1="505.97" y1="192.31" x2="505.97" y2="263.24" fill="none" stroke="#999" stroke-miterlimit="10" stroke-width="12"/>
      </g>
      <g>
        <line x1="398.92" y1="265.37" x2="508" y2="336.29" fill="none" stroke="#999" stroke-miterlimit="10" stroke-width="12"/>
        <line x1="505.54" y1="264.53" x2="396.46" y2="335.45" fill="none" stroke="#999" stroke-miterlimit="10" stroke-width="12"/>
        <line x1="396.14" y1="265.37" x2="508" y2="265.37" fill="none" stroke="#999" stroke-miterlimit="10" stroke-width="12"/>
        <line x1="398.38" y1="265.37" x2="398.38" y2="336.29" fill="none" stroke="#999" stroke-miterlimit="10" stroke-width="12"/>
        <line x1="508" y1="336.29" x2="396.14" y2="336.29" fill="none" stroke="#999" stroke-miterlimit="10" stroke-width="12"/>
        <line x1="505.76" y1="265.37" x2="505.76" y2="336.29" fill="none" stroke="#999" stroke-miterlimit="10" stroke-width="12"/>
      </g>
      <g>
        <line x1="398.92" y1="340.24" x2="508" y2="411.16" fill="none" stroke="#999" stroke-miterlimit="10" stroke-width="12"/>
        <line x1="505.54" y1="339.39" x2="396.46" y2="410.32" fill="none" stroke="#999" stroke-miterlimit="10" stroke-width="12"/>
        <line x1="396.14" y1="340.24" x2="508" y2="340.24" fill="none" stroke="#999" stroke-miterlimit="10" stroke-width="12"/>
        <line x1="398.38" y1="340.24" x2="398.38" y2="411.16" fill="none" stroke="#999" stroke-miterlimit="10" stroke-width="12"/>
        <line x1="508" y1="411.16" x2="396.14" y2="411.16" fill="none" stroke="#999" stroke-miterlimit="10" stroke-width="12"/>
        <line x1="505.76" y1="340.24" x2="505.76" y2="411.16" fill="none" stroke="#999" stroke-miterlimit="10" stroke-width="12"/>
      </g>
      <g>
        <line x1="398.92" y1="415.1" x2="508" y2="486.03" fill="none" stroke="#999" stroke-miterlimit="10" stroke-width="12"/>
        <line x1="505.54" y1="414.26" x2="396.46" y2="485.18" fill="none" stroke="#999" stroke-miterlimit="10" stroke-width="12"/>
        <line x1="396.14" y1="415.1" x2="508" y2="415.1" fill="none" stroke="#999" stroke-miterlimit="10" stroke-width="12"/>
        <line x1="398.38" y1="415.1" x2="398.38" y2="486.03" fill="none" stroke="#999" stroke-miterlimit="10" stroke-width="12"/>
        <line x1="508" y1="486.03" x2="396.14" y2="486.03" fill="none" stroke="#999" stroke-miterlimit="10" stroke-width="12"/>
        <line x1="505.76" y1="415.1" x2="505.76" y2="486.03" fill="none" stroke="#999" stroke-miterlimit="10" stroke-width="12"/>
      </g>
      <g>
        <line x1="398.92" y1="489.97" x2="508" y2="560.89" fill="none" stroke="#999" stroke-miterlimit="10" stroke-width="12"/>
        <line x1="505.54" y1="489.13" x2="396.46" y2="560.05" fill="none" stroke="#999" stroke-miterlimit="10" stroke-width="12"/>
        <line x1="396.14" y1="489.97" x2="508" y2="489.97" fill="none" stroke="#999" stroke-miterlimit="10" stroke-width="12"/>
        <line x1="398.38" y1="489.97" x2="398.38" y2="560.89" fill="none" stroke="#999" stroke-miterlimit="10" stroke-width="12"/>
        <line x1="508" y1="560.89" x2="396.14" y2="560.89" fill="none" stroke="#999" stroke-miterlimit="10" stroke-width="12"/>
        <line x1="505.76" y1="489.97" x2="505.76" y2="560.89" fill="none" stroke="#999" stroke-miterlimit="10" stroke-width="12"/>
      </g>
      <g>
        <line x1="397.85" y1="562.47" x2="508.36" y2="633.39" fill="none" stroke="#999" stroke-miterlimit="10" stroke-width="12"/>
        <line x1="505.87" y1="561.63" x2="395.36" y2="632.55" fill="none" stroke="#999" stroke-miterlimit="10" stroke-width="12"/>
        <line x1="395.04" y1="562.47" x2="508.36" y2="562.47" fill="none" stroke="#999" stroke-miterlimit="10" stroke-width="12"/>
        <line x1="397.3" y1="562.47" x2="397.3" y2="633.39" fill="none" stroke="#999" stroke-miterlimit="10" stroke-width="12"/>
        <line x1="508.36" y1="633.39" x2="395.04" y2="633.39" fill="none" stroke="#999" stroke-miterlimit="10" stroke-width="12"/>
        <line x1="506.1" y1="562.47" x2="506.1" y2="633.39" fill="none" stroke="#999" stroke-miterlimit="10" stroke-width="12"/>
      </g>
      <g>
        <line x1="396.98" y1="635.35" x2="508.36" y2="706.27" fill="none" stroke="#999" stroke-miterlimit="10" stroke-width="12"/>
        <line x1="505.86" y1="634.5" x2="394.47" y2="705.43" fill="none" stroke="#999" stroke-miterlimit="10" stroke-width="12"/>
        <line x1="394.14" y1="635.35" x2="508.36" y2="635.35" fill="none" stroke="#999" stroke-miterlimit="10" stroke-width="12"/>
        <line x1="396.42" y1="635.35" x2="396.42" y2="706.27" fill="none" stroke="#999" stroke-miterlimit="10" stroke-width="12"/>
        <line x1="508.36" y1="706.27" x2="394.14" y2="706.27" fill="none" stroke="#999" stroke-miterlimit="10" stroke-width="12"/>
        <line x1="506.08" y1="635.35" x2="506.08" y2="706.27" fill="none" stroke="#999" stroke-miterlimit="10" stroke-width="12"/>
      </g>
      <g>
        <line x1="397.32" y1="711.42" x2="508.7" y2="782.34" fill="none" stroke="#999" stroke-miterlimit="10" stroke-width="12"/>
        <line x1="506.2" y1="710.58" x2="394.81" y2="781.5" fill="none" stroke="#999" stroke-miterlimit="10" stroke-width="12"/>
        <line x1="394.48" y1="711.42" x2="508.7" y2="711.42" fill="none" stroke="#999" stroke-miterlimit="10" stroke-width="12"/>
        <line x1="396.77" y1="711.42" x2="396.77" y2="782.34" fill="none" stroke="#999" stroke-miterlimit="10" stroke-width="12"/>
        <line x1="508.7" y1="782.34" x2="394.48" y2="782.34" fill="none" stroke="#999" stroke-miterlimit="10" stroke-width="12"/>
        <line x1="506.42" y1="711.42" x2="506.42" y2="782.34" fill="none" stroke="#999" stroke-miterlimit="10" stroke-width="12"/>
      </g>
      <g>
        <line x1="397.32" y1="782.34" x2="508.7" y2="853.27" fill="none" stroke="#999" stroke-miterlimit="10" stroke-width="12"/>
        <line x1="506.2" y1="781.5" x2="394.81" y2="852.43" fill="none" stroke="#999" stroke-miterlimit="10" stroke-width="12"/>
        <line x1="394.48" y1="782.34" x2="508.7" y2="782.34" fill="none" stroke="#999" stroke-miterlimit="10" stroke-width="12"/>
        <line x1="396.77" y1="782.34" x2="396.77" y2="853.27" fill="none" stroke="#999" stroke-miterlimit="10" stroke-width="12"/>
        <line x1="508.7" y1="853.27" x2="394.48" y2="853.27" fill="none" stroke="#999" stroke-miterlimit="10" stroke-width="12"/>
        <line x1="506.42" y1="782.34" x2="506.42" y2="853.27" fill="none" stroke="#999" stroke-miterlimit="10" stroke-width="12"/>
      </g>
    </g>
    </g>
    <line id="rocket-rod" opacity="0" x1="510.5" y1="375.5" x2="915.95" y2="375.18" fill="none" stroke="#e6e7e8" stroke-miterlimit="10" stroke-width="11"/>
    <g id="scene2-fire" opacity="0">
      <path d="m1078.27,788.35c10.69,7.5,26.43,8.6,36.36,17.08,27.39,23.38,57.43,43.51,84.71,67.02,27.27,23.51,52.17,51.14,65.46,84.61-54.99-16.18-108.91-35.96-161.3-59.19,7.7,17.03,3.24,36.99-3.28,54.5-6.52,17.51-15.12,34.87-15.47,53.56-18.78-34.82-35.77-70.59-50.88-107.15-14.96,23.11-29.91,46.22-44.87,69.33-6.99-24.1-9.33-49.53-6.86-74.5-38.12,13.54-77.91,22.35-118.18,26.15-1.27-1.67-2.54-3.34-3.81-5.01,37.93-42.75,74.76-86.48,110.44-131.12,12.26-2.98,20.77-4.97,31-12.35,28.45,4.64,53.1.52,76.7,17.07Z" fill="#d22" stroke="#d22" stroke-miterlimit="10" stroke-width="2"/>
      <path d="m1064.61,802.02c7.73,5.42,19.1,6.21,26.28,12.34,19.8,16.9,41.52,31.45,61.23,48.45,19.71,17,37.71,36.97,47.32,61.16-39.75-11.69-78.72-26-116.6-42.79,5.57,12.31,2.34,26.74-2.37,39.39-4.72,12.66-10.93,25.21-11.18,38.71-13.57-25.17-25.85-51.03-36.78-77.45-10.81,16.7-21.62,33.41-32.43,50.11-5.05-17.42-6.74-35.8-4.96-53.85-27.55,9.79-56.32,16.15-85.42,18.9-.92-1.21-1.84-2.42-2.75-3.62,27.41-30.9,54.04-62.51,79.83-94.78,8.86-2.16,15.01-3.59,22.41-8.93,20.57,3.35,38.38.37,55.44,12.34Z" fill="#db9523" stroke="#db6d23" stroke-miterlimit="10" stroke-width="2"/>
    </g>
    <g id="scene2-rocket" opacity="0">
      <path d="m1009.16,127.77l-102.69,156.64c-5.17,7.88.49,18.35,9.91,18.35h205.39c9.42,0,15.08-10.47,9.91-18.35l-102.69-156.64c-4.68-7.14-15.14-7.14-19.82,0Z" fill="#e53e3e" stroke-width="0"/>
      <path d="m1123.14,509.41c51.69,23.31,104.23,48.28,141.95,87.16,7.44,7.66,14.32,15.95,18.35,25.38,3.66,8.56,4.84,17.76,6,26.84,2.96,23.26,5.93,46.59,5.67,69.99-25.77-16.09-51.53-32.19-77.3-48.28-27.77-17.35-57.52-35.33-91.51-37.06" fill="#e53e3e" stroke-width="0"/>
      <path d="m915.79,508.4c-51.69,23.31-104.23,48.28-141.95,87.16-7.44,7.66-14.32,15.95-18.35,25.38-3.66,8.56-4.84,17.76-6,26.84-2.96,23.26-5.93,46.59-5.67,69.99,25.77-16.09,51.53-32.19,77.3-48.28,27.77-17.35,57.52-35.33,91.51-37.06" fill="#e53e3e" stroke-width="0"/>
      <rect x="964.74" y="749.51" width="107.38" height="31.52" rx="6.72" ry="6.72" fill="#e6e7e8" stroke-width="0"/>
      <path d="m904.34,290.46h229.33v421.52c0,25.49-20.7,46.19-46.19,46.19h-136.96c-25.49,0-46.19-20.7-46.19-46.19v-421.52h0Z" fill="#9eadb7" stroke-width="0"/>
      <g>
        <ellipse cx="1018.43" cy="414.58" rx="71.86" ry="63.28" fill="#231f20" stroke-width="0"/>
        <ellipse cx="1019.99" cy="414.99" rx="51.47" ry="45.33" fill="#2331e2" stroke-width="0"/>
      </g>
    </g>
    <path id="cloud-1" d="m918.74,716.1c-9.69-8.9-21.81-14.86-34.42-18.59-12.19-3.6-26.27-4.92-36.82,2.17-10.55,7.09-13.47,25.24-2.73,32.03,2.72,1.72,6.78,2.31,8.84-.17,3.42-4.11-2.51-9.55-7.61-11.15-21.81-6.84-46.64-3.3-65.67,9.36-4.68,3.11-9.32,7.24-10.24,12.79-1.32,8.01,5.6,14.99,12.62,19.06,11.71,6.79,25.53,9.88,39.01,8.72-9.03,4.56-16.37,12.38-20.36,21.68-2.43,5.66-3.53,12.52-.3,17.77,4.32,7.03,14.03,7.99,22.28,7.68,23.12-.88,46.08-5.8,67.53-14.47-2.6,17.62,15.54,34.95,33.02,31.54,17.48-3.4,27.79-26.28,18.77-41.63,1.35,11.04,14.79,17.79,25.43,14.53,10.64-3.26,17.73-13.93,19.65-24.89,1.91-10.96-.49-22.2-3.58-32.88,3.15,5.46,12,4.59,16.23-.09,4.22-4.68,5.08-11.41,5.72-17.68,1.31-12.85,1.72-27.85-8.03-36.32-6.38-5.54-15.41-6.59-23.85-7.01-22.72-1.11-45.58.6-67.89,5.1-12.19,2.46-25.76,7.01-30.72,18.41" fill="#5f94b7" opacity="0" stroke="#2a72ad" stroke-miterlimit="10" stroke-width="2"/>
    <path id="cloud-2" d="m913.87,865.97c-5.94-11.73-15.2-21.57-25.71-29.49-10.15-7.65-22.88-13.83-35.24-10.89-12.37,2.94-21.47,18.9-13.8,29.04,1.95,2.57,5.53,4.54,8.33,2.95,4.65-2.65,1-9.82-3.22-13.11-18.02-14.06-42.51-19.46-64.78-14.28-5.48,1.27-11.27,3.51-14.08,8.38-4.05,7.04-.02,16,5.13,22.28,8.58,10.47,20.43,18.21,33.47,21.86-10.06,1.1-19.68,5.84-26.68,13.15-4.26,4.45-7.7,10.49-6.52,16.54,1.58,8.1,10.33,12.41,18.16,15.01,21.96,7.29,45.18,10.74,68.31,10.15-8.62,15.58,2.29,38.18,19.85,41.13,17.56,2.95,35.25-14.85,32.18-32.4-2.61,10.81,7.61,21.85,18.71,22.53,11.1.68,21.49-6.82,27.13-16.41,5.64-9.59,7.33-20.96,8.18-32.05,1.04,6.22,9.63,8.51,15.23,5.61,5.6-2.9,8.76-8.9,11.56-14.55,5.73-11.57,11.38-25.47,5.23-36.83-4.02-7.43-12.11-11.58-19.87-14.93-20.89-9.02-42.9-15.44-65.36-19.05-12.27-1.98-26.58-2.48-35.23,6.45" fill="#af4a90" opacity="0" stroke="#c9288f" stroke-miterlimit="10" stroke-width="2"/>
    <path id="cloud-3" d="m1171.25,751.2c-6.14-11.64-15.55-21.32-26.19-29.06-10.28-7.48-23.1-13.45-35.42-10.31-12.32,3.14-21.16,19.25-13.32,29.26,1.99,2.54,5.61,4.45,8.38,2.81,4.61-2.72.84-9.84-3.43-13.06-18.25-13.77-42.82-18.76-65-13.22-5.45,1.36-11.21,3.7-13.94,8.61-3.94,7.1.24,16,5.49,22.19,8.75,10.32,20.73,17.87,33.82,21.31-10.04,1.27-19.58,6.17-26.46,13.59-4.19,4.52-7.52,10.61-6.25,16.64,1.71,8.07,10.53,12.24,18.41,14.71,22.07,6.93,45.35,10,68.47,9.03-8.36,15.72,2.91,38.14,20.52,40.8,17.61,2.66,35-15.43,31.65-32.92-2.43,10.86,7.97,21.72,19.08,22.22,11.11.5,21.38-7.17,26.86-16.85,5.48-9.68,6.99-21.07,7.66-32.18,1.14,6.2,9.77,8.35,15.32,5.36,5.55-2.99,8.61-9.04,11.32-14.74,5.54-11.67,10.96-25.65,4.63-36.91-4.15-7.36-12.3-11.38-20.11-14.6-21.03-8.67-43.14-14.73-65.66-17.98-12.31-1.78-26.62-2.05-35.11,7.03" fill="#bdc12d" opacity="0" stroke="#e2e229" stroke-miterlimit="10" stroke-width="2"/>
    <path id="cloud-4" d="m1166.5,837.45c-10.79-7.53-23.6-11.82-36.6-13.82-12.56-1.94-26.7-1.36-36.2,7.08-9.51,8.44-9.98,26.81,1.58,32.11,2.93,1.34,7.02,1.38,8.74-1.35,2.84-4.53-3.76-9.13-9.04-10.03-22.53-3.87-46.66,2.96-63.83,18.05-4.22,3.71-8.27,8.42-8.44,14.04-.24,8.12,7.55,14.11,15.06,17.2,12.51,5.16,26.62,6.38,39.83,3.43-8.34,5.73-14.57,14.46-17.28,24.2-1.65,5.94-1.82,12.88,2.08,17.65,5.22,6.39,14.97,6.05,23.1,4.63,22.79-3.97,44.89-11.91,64.99-23.37-.22,17.81,20.07,32.56,36.94,26.85,16.87-5.71,24.03-29.76,13.03-43.77,2.82,10.76,17.04,15.65,27.14,11,10.11-4.65,15.71-16.17,16.14-27.29.43-11.12-3.45-21.93-7.95-32.11,3.86,4.99,12.51,2.94,16.07-2.26,3.56-5.2,3.51-11.98,3.3-18.29-.42-12.91-2.02-27.83-12.81-34.92-7.06-4.64-16.15-4.47-24.57-3.76-22.67,1.93-45.1,6.69-66.6,14.13-11.75,4.06-24.59,10.39-27.98,22.35" fill="#c33" opacity="0" stroke="#ff0b0b" stroke-miterlimit="10" stroke-width="2"/>
    <path id="cloud-5" d="m1054.37,792.53c-6.14-11.64-15.55-21.32-26.19-29.06-10.28-7.48-23.1-13.45-35.42-10.31-12.32,3.14-21.16,19.25-13.32,29.26,1.99,2.54,5.61,4.45,8.38,2.81,4.61-2.72.84-9.84-3.43-13.06-18.25-13.77-42.82-18.76-65-13.22-5.45,1.36-11.21,3.7-13.94,8.61-3.94,7.1.24,16,5.49,22.19,8.75,10.32,20.73,17.87,33.82,21.31-10.04,1.27-19.58,6.17-26.46,13.59-4.19,4.52-7.52,10.61-6.25,16.64,1.71,8.07,10.53,12.24,18.41,14.71,22.07,6.93,45.35,10,68.47,9.03-8.36,15.72,2.91,38.14,20.52,40.8,17.61,2.66,35-15.43,31.65-32.92-2.43,10.86,7.97,21.72,19.08,22.22,11.11.5,21.38-7.17,26.86-16.85,5.48-9.68,6.99-21.07,7.66-32.18,1.14,6.2,9.77,8.35,15.32,5.36,5.55-2.99,8.61-9.04,11.32-14.74,5.54-11.67,10.96-25.65,4.63-36.91-4.15-7.36-12.3-11.38-20.11-14.6-21.03-8.67-43.14-14.73-65.66-17.98-12.31-1.78-26.62-2.05-35.11,7.03" fill="#00ff0c" opacity="0" stroke="#2be038" stroke-miterlimit="10" stroke-width="2"/>
    <g id="hold-b-to-charge" opacity="0">
      <path d="m1283.74,992.52v-40.02h-10.02v-4.98h30v4.98h-10.02v40.02h-9.96Z" fill="#fff" stroke-width="0"/>
      <path d="m1328.74,972.54v-5.04c0-1.36-.49-2.53-1.47-3.51-.98-.98-2.17-1.47-3.57-1.47h-4.98c-2.96,0-4.62,1.66-4.98,4.98h-5.04c.8-6.64,4.14-9.96,10.02-9.96h10.02c2.72,0,5.06.98,7.02,2.94,1.96,1.96,2.94,4.3,2.94,7.02v25.02h-9.96v-4.98c-.4,3.32-2.08,4.98-5.04,4.98h-4.98c-2.72,0-5.07-.98-7.05-2.94-1.98-1.96-2.97-4.32-2.97-7.08s.99-5.06,2.97-7.02c1.98-1.96,4.33-2.94,7.05-2.94h10.02Zm0,4.98h-5.04c-1.36,0-2.53.49-3.51,1.47-.98.98-1.47,2.15-1.47,3.51s.49,2.54,1.47,3.54c.98,1,2.15,1.5,3.51,1.5s2.59-.5,3.57-1.5c.98-1,1.47-2.18,1.47-3.54v-4.98Z" fill="#fff" stroke-width="0"/>
      <path d="m1348.72,957.54h10.02v4.98c0-1.68.42-2.93,1.26-3.75.84-.82,2.08-1.23,3.72-1.23h5.04c2.72,0,5.06.98,7.02,2.94,1.96,1.96,2.94,4.3,2.94,7.02v15c0,2.76-.98,5.12-2.94,7.08-1.96,1.96-4.3,2.94-7.02,2.94h-10.02v10.02h-10.02v-45Zm10.02,30h4.98c1.4,0,2.59-.49,3.57-1.47.98-.98,1.47-2.17,1.47-3.57v-15c0-1.36-.49-2.53-1.47-3.51-.98-.98-2.17-1.47-3.57-1.47s-2.53.49-3.51,1.47c-.98.98-1.47,2.15-1.47,3.51v20.04Z" fill="#fff" stroke-width="0"/>
      <path d="m1403.74,992.52v-45h20.04c2.72,0,5.06.99,7.02,2.97,1.96,1.98,2.94,4.33,2.94,7.05v2.46c0,2.96-.83,5.27-2.49,6.93s-4.15,2.69-7.47,3.09c3.32,0,5.81,1.01,7.47,3.03,1.66,2.02,2.49,4.35,2.49,6.99v2.46c0,2.72-.98,5.07-2.94,7.05-1.96,1.98-4.3,2.97-7.02,2.97h-20.04Zm10.02-25.02h4.98c1.4,0,2.59-.49,3.57-1.47.98-.98,1.47-2.15,1.47-3.51v-4.98c0-1.4-.49-2.59-1.47-3.57-.98-.98-2.17-1.47-3.57-1.47h-4.98v15Zm0,20.04h4.98c1.4,0,2.59-.5,3.57-1.5.98-1,1.47-2.18,1.47-3.54v-4.98c0-3.32-1.68-4.98-5.04-4.98h-4.98v15Z" fill="#fff" stroke-width="0"/>
      <path d="m1463.8,947.52h9.96v10.02h5.04v4.98h-5.04v19.98c0,1.64.54,2.89,1.62,3.75s2.06,1.29,2.94,1.29h.48v4.98h-5.04c-2.72,0-5.06-.98-7.02-2.94-1.96-1.96-2.94-4.32-2.94-7.08v-19.98h-5.04v-4.98h5.04v-10.02Z" fill="#fff" stroke-width="0"/>
      <path d="m1498.78,957.54h10.02c2.72,0,5.06.98,7.02,2.94,1.96,1.96,2.94,4.3,2.94,7.02v15c0,2.72-.98,5.07-2.94,7.05-1.96,1.98-4.3,2.97-7.02,2.97h-10.02c-2.72,0-5.07-.98-7.05-2.94-1.98-1.96-2.97-4.32-2.97-7.08v-15c0-2.72.99-5.06,2.97-7.02,1.98-1.96,4.33-2.94,7.05-2.94Zm0,9.96v15c0,1.36.49,2.54,1.47,3.54.98,1,2.15,1.5,3.51,1.5s2.59-.5,3.57-1.5c.98-1,1.47-2.18,1.47-3.54v-15c0-1.36-.49-2.53-1.47-3.51-.98-.98-2.17-1.47-3.57-1.47s-2.53.49-3.51,1.47c-.98.98-1.47,2.15-1.47,3.51Z" fill="#fff" stroke-width="0"/>
      <path d="m1568.8,967.5h-4.98c-.4-3.32-2.08-4.98-5.04-4.98-1.36,0-2.53.49-3.51,1.47s-1.47,2.15-1.47,3.51v15c0,1.36.49,2.54,1.47,3.54.98,1,2.15,1.5,3.51,1.5,2.96,0,4.64-1.68,5.04-5.04h4.98c-.4,6.68-3.74,10.02-10.02,10.02h-4.98c-2.72,0-5.07-.98-7.05-2.94-1.98-1.96-2.97-4.32-2.97-7.08v-15c0-2.72.99-5.06,2.97-7.02,1.98-1.96,4.33-2.94,7.05-2.94h4.98c6.32,0,9.66,3.32,10.02,9.96Z" fill="#fff" stroke-width="0"/>
      <path d="m1578.76,992.52v-45h10.02v15c.2-1.68.72-2.93,1.56-3.75.84-.82,1.98-1.23,3.42-1.23h5.04c2.72,0,5.06.98,7.02,2.94,1.96,1.96,2.94,4.3,2.94,7.02v25.02h-9.96v-25.02c0-1.36-.49-2.53-1.47-3.51-.98-.98-2.17-1.47-3.57-1.47s-2.53.49-3.51,1.47-1.47,2.15-1.47,3.51v25.02h-10.02Z" fill="#fff" stroke-width="0"/>
      <path d="m1638.81,972.54v-5.04c0-1.36-.49-2.53-1.47-3.51-.98-.98-2.17-1.47-3.57-1.47h-4.98c-2.96,0-4.62,1.66-4.98,4.98h-5.04c.8-6.64,4.14-9.96,10.02-9.96h10.02c2.72,0,5.06.98,7.02,2.94,1.96,1.96,2.94,4.3,2.94,7.02v25.02h-9.96v-4.98c-.4,3.32-2.08,4.98-5.04,4.98h-4.98c-2.72,0-5.07-.98-7.05-2.94-1.98-1.96-2.97-4.32-2.97-7.08s.99-5.06,2.97-7.02c1.98-1.96,4.33-2.94,7.05-2.94h10.02Zm0,4.98h-5.04c-1.36,0-2.53.49-3.51,1.47s-1.47,2.15-1.47,3.51.49,2.54,1.47,3.54c.98,1,2.15,1.5,3.51,1.5s2.59-.5,3.57-1.5c.98-1,1.47-2.18,1.47-3.54v-4.98Z" fill="#fff" stroke-width="0"/>
      <path d="m1668.81,992.52h-10.02v-34.98h10.02v9.96c.4-3.32,1.43-5.81,3.09-7.47s3.97-2.49,6.93-2.49h4.98v9.96h-10.02c-1.36,0-2.53.49-3.51,1.47s-1.47,2.17-1.47,3.57v19.98Z" fill="#fff" stroke-width="0"/>
      <path d="m1718.79,957.54v39.96c0,2.72-.98,5.07-2.94,7.05-1.96,1.98-4.3,2.97-7.02,2.97h-10.02c-5.88,0-9.22-3.34-10.02-10.02h5.04c.24,3.36,1.9,5.04,4.98,5.04h4.98c1.4,0,2.59-.49,3.57-1.47.98-.98,1.47-2.17,1.47-3.57v-9.96c-.4,3.32-2.08,4.98-5.04,4.98h-4.98c-2.72,0-5.07-.98-7.05-2.94-1.98-1.96-2.97-4.32-2.97-7.08v-15c0-2.72.99-5.06,2.97-7.02,1.98-1.96,4.33-2.94,7.05-2.94h19.98Zm-9.96,4.98h-5.04c-1.36,0-2.53.49-3.51,1.47s-1.47,2.15-1.47,3.51v15c0,1.36.49,2.54,1.47,3.54.98,1,2.15,1.5,3.51,1.5s2.59-.5,3.57-1.5c.98-1,1.47-2.18,1.47-3.54v-19.98Z" fill="#fff" stroke-width="0"/>
      <path d="m1758.81,977.52h-19.98v4.98c0,1.36.49,2.54,1.47,3.54.98,1,2.15,1.5,3.51,1.5h5.04c3.32,0,4.98-1.68,4.98-5.04h4.98c-.76,6.68-4.08,10.02-9.96,10.02h-10.02c-2.72,0-5.07-.98-7.05-2.94-1.98-1.96-2.97-4.32-2.97-7.08v-15c0-2.72.99-5.06,2.97-7.02,1.98-1.96,4.33-2.94,7.05-2.94h10.02c2.72,0,5.06.98,7.02,2.94,1.96,1.96,2.94,4.3,2.94,7.02v10.02Zm-19.98-4.98h10.02v-5.04c0-1.36-.49-2.53-1.47-3.51-.98-.98-2.17-1.47-3.57-1.47s-2.53.49-3.51,1.47-1.47,2.15-1.47,3.51v5.04Z" fill="#fff" stroke-width="0"/>
      <path d="m1773.87,977.52v-30h9.96v30h-9.96Zm0,15v-10.02h9.96v10.02h-9.96Z" fill="#fff" stroke-width="0"/>
    </g>
    <g id="press-A-to-continue-2" opacity="0">
      <path d="m1281.98,992.79v-45h20.04c2.72,0,5.06.99,7.02,2.97,1.96,1.98,2.94,4.33,2.94,7.05v4.98c0,2.72-.98,5.07-2.94,7.05-1.96,1.98-4.3,2.97-7.02,2.97h-10.02v19.98h-10.02Zm10.02-25.02h4.98c1.4,0,2.59-.49,3.57-1.47s1.47-2.15,1.47-3.51v-4.98c0-1.4-.49-2.59-1.47-3.57-.98-.98-2.17-1.47-3.57-1.47h-4.98v15Z" fill="#fff" stroke-width="0"/>
      <path d="m1332.02,992.79h-10.02v-34.98h10.02v9.96c.4-3.32,1.43-5.81,3.09-7.47,1.66-1.66,3.97-2.49,6.93-2.49h4.98v9.96h-10.02c-1.36,0-2.53.49-3.51,1.47-.98.98-1.47,2.17-1.47,3.57v19.98Z" fill="#fff" stroke-width="0"/>
      <path d="m1382,977.79h-19.98v4.98c0,1.36.49,2.54,1.47,3.54.98,1,2.15,1.5,3.51,1.5h5.04c3.32,0,4.98-1.68,4.98-5.04h4.98c-.76,6.68-4.08,10.02-9.96,10.02h-10.02c-2.72,0-5.07-.98-7.05-2.94-1.98-1.96-2.97-4.32-2.97-7.08v-15c0-2.72.99-5.06,2.97-7.02,1.98-1.96,4.33-2.94,7.05-2.94h10.02c2.72,0,5.06.98,7.02,2.94,1.96,1.96,2.94,4.3,2.94,7.02v10.02Zm-19.98-4.98h10.02v-5.04c0-1.36-.49-2.53-1.47-3.51-.98-.98-2.17-1.47-3.57-1.47s-2.53.49-3.51,1.47c-.98.98-1.47,2.15-1.47,3.51v5.04Z" fill="#fff" stroke-width="0"/>
      <path d="m1417.04,967.77h-4.98c-.44-3.32-2.02-4.98-4.74-4.98-1.76,0-3.08.35-3.96,1.05-.88.7-1.32,1.73-1.32,3.09,0,1.44,2.42,3.46,7.26,6.06,3.96,2.12,6.24,3.88,6.84,5.28.6,1.4.9,2.9.9,4.5,0,2.76-.98,5.12-2.94,7.08s-4.32,2.94-7.08,2.94h-4.98c-6.68,0-10.02-3.34-10.02-10.02h5.04c.4,3.36,1.96,5.04,4.68,5.04,1.8,0,3.14-.35,4.02-1.05.88-.7,1.32-1.75,1.32-3.15s-2.42-3.4-7.26-6c-3.96-2.12-6.25-3.88-6.87-5.28-.62-1.4-.93-2.9-.93-4.5,0-2.76.99-5.12,2.97-7.08,1.98-1.96,4.33-2.94,7.05-2.94h4.98c6.28,0,9.62,3.32,10.02,9.96Z" fill="#fff" stroke-width="0"/>
      <path d="m1452.02,967.77h-4.98c-.44-3.32-2.02-4.98-4.74-4.98-1.76,0-3.08.35-3.96,1.05-.88.7-1.32,1.73-1.32,3.09,0,1.44,2.42,3.46,7.26,6.06,3.96,2.12,6.24,3.88,6.84,5.28.6,1.4.9,2.9.9,4.5,0,2.76-.98,5.12-2.94,7.08-1.96,1.96-4.32,2.94-7.08,2.94h-4.98c-6.68,0-10.02-3.34-10.02-10.02h5.04c.4,3.36,1.96,5.04,4.68,5.04,1.8,0,3.14-.35,4.02-1.05.88-.7,1.32-1.75,1.32-3.15s-2.42-3.4-7.26-6c-3.96-2.12-6.25-3.88-6.87-5.28-.62-1.4-.93-2.9-.93-4.5,0-2.76.99-5.12,2.97-7.08,1.98-1.96,4.33-2.94,7.05-2.94h4.98c6.28,0,9.62,3.32,10.02,9.96Z" fill="#fff" stroke-width="0"/>
      <path d="m1476.98,992.79v-34.98c0-2.76.99-5.12,2.97-7.08s4.33-2.94,7.05-2.94h10.02c2.72,0,5.06.99,7.02,2.97,1.96,1.98,2.94,4.33,2.94,7.05v34.98h-9.96v-19.98h-10.02v19.98h-10.02Zm10.02-25.02h10.02v-9.96c0-1.4-.49-2.59-1.47-3.57-.98-.98-2.17-1.47-3.57-1.47s-2.53.49-3.51,1.47c-.98.98-1.47,2.17-1.47,3.57v9.96Z" fill="#fff" stroke-width="0"/>
      <path d="m1537.04,947.79h9.96v10.02h5.04v4.98h-5.04v19.98c0,1.64.54,2.89,1.62,3.75s2.06,1.29,2.94,1.29h.48v4.98h-5.04c-2.72,0-5.06-.98-7.02-2.94-1.96-1.96-2.94-4.32-2.94-7.08v-19.98h-5.04v-4.98h5.04v-10.02Z" fill="#fff" stroke-width="0"/>
      <path d="m1572.02,957.81h10.02c2.72,0,5.06.98,7.02,2.94,1.96,1.96,2.94,4.3,2.94,7.02v15c0,2.72-.98,5.07-2.94,7.05-1.96,1.98-4.3,2.97-7.02,2.97h-10.02c-2.72,0-5.07-.98-7.05-2.94-1.98-1.96-2.97-4.32-2.97-7.08v-15c0-2.72.99-5.06,2.97-7.02,1.98-1.96,4.33-2.94,7.05-2.94Zm0,9.96v15c0,1.36.49,2.54,1.47,3.54.98,1,2.15,1.5,3.51,1.5s2.59-.5,3.57-1.5c.98-1,1.47-2.18,1.47-3.54v-15c0-1.36-.49-2.53-1.47-3.51-.98-.98-2.17-1.47-3.57-1.47s-2.53.49-3.51,1.47-1.47,2.15-1.47,3.51Z" fill="#fff" stroke-width="0"/>
      <path d="m1642.04,967.77h-4.98c-.44-3.32-2.02-4.98-4.74-4.98-1.76,0-3.08.35-3.96,1.05-.88.7-1.32,1.73-1.32,3.09,0,1.44,2.42,3.46,7.26,6.06,3.96,2.12,6.24,3.88,6.84,5.28.6,1.4.9,2.9.9,4.5,0,2.76-.98,5.12-2.94,7.08-1.96,1.96-4.32,2.94-7.08,2.94h-4.98c-6.68,0-10.02-3.34-10.02-10.02h5.04c.4,3.36,1.96,5.04,4.68,5.04,1.8,0,3.14-.35,4.02-1.05.88-.7,1.32-1.75,1.32-3.15s-2.42-3.4-7.26-6c-3.96-2.12-6.25-3.88-6.87-5.28-.62-1.4-.93-2.9-.93-4.5,0-2.76.99-5.12,2.97-7.08,1.98-1.96,4.33-2.94,7.05-2.94h4.98c6.28,0,9.62,3.32,10.02,9.96Z" fill="#fff" stroke-width="0"/>
      <path d="m1657.04,947.79h9.96v10.02h5.04v4.98h-5.04v19.98c0,1.64.54,2.89,1.62,3.75s2.06,1.29,2.94,1.29h.48v4.98h-5.04c-2.72,0-5.06-.98-7.02-2.94-1.96-1.96-2.94-4.32-2.94-7.08v-19.98h-5.04v-4.98h5.04v-10.02Z" fill="#fff" stroke-width="0"/>
      <path d="m1702.04,972.81v-5.04c0-1.36-.49-2.53-1.47-3.51-.98-.98-2.17-1.47-3.57-1.47h-4.98c-2.96,0-4.62,1.66-4.98,4.98h-5.04c.8-6.64,4.14-9.96,10.02-9.96h10.02c2.72,0,5.06.98,7.02,2.94,1.96,1.96,2.94,4.3,2.94,7.02v25.02h-9.96v-4.98c-.4,3.32-2.08,4.98-5.04,4.98h-4.98c-2.72,0-5.07-.98-7.05-2.94-1.98-1.96-2.97-4.32-2.97-7.08s.99-5.06,2.97-7.02c1.98-1.96,4.33-2.94,7.05-2.94h10.02Zm0,4.98h-5.04c-1.36,0-2.53.49-3.51,1.47s-1.47,2.15-1.47,3.51.49,2.54,1.47,3.54c.98,1,2.15,1.5,3.51,1.5s2.59-.5,3.57-1.5c.98-1,1.47-2.18,1.47-3.54v-4.98Z" fill="#fff" stroke-width="0"/>
      <path d="m1732.04,992.79h-10.02v-34.98h10.02v9.96c.4-3.32,1.43-5.81,3.09-7.47s3.97-2.49,6.93-2.49h4.98v9.96h-10.02c-1.36,0-2.53.49-3.51,1.47s-1.47,2.17-1.47,3.57v19.98Z" fill="#fff" stroke-width="0"/>
      <path d="m1757.06,947.79h9.96v10.02h5.04v4.98h-5.04v19.98c0,1.64.54,2.89,1.62,3.75s2.06,1.29,2.94,1.29h.48v4.98h-5.04c-2.72,0-5.06-.98-7.02-2.94-1.96-1.96-2.94-4.32-2.94-7.08v-19.98h-5.04v-4.98h5.04v-10.02Z" fill="#fff" stroke-width="0"/>
    </g>
  </g>
</svg>