<?xml version="1.0" encoding="UTF-8"?>
<svg id="scene3SVG" xmlns="http://www.w3.org/2000/svg" viewBox="0 0 1920 1080">
  <g id="scene3Wrapper">
    <rect id="scene3Bg" x="1.14" y=".38" width="1920" height="1080" stroke="#000" stroke-miterlimit="10" stroke-width=".75"/>
    <polygon id="star-15" points="667.17 529.78 651.3 521.11 634.2 527.72 638.65 511.73 626.24 499.44 644.86 498.23 654.28 484.02 661.34 499.26 679.58 502.77 665.32 513.4 667.17 529.78" fill="#fff" opacity="0" stroke="#fff" stroke-miterlimit="10"/>
    <polygon id="star-14" points="775.66 768.25 791.84 797.16 828.02 801.79 801.84 824.3 808.02 856.07 775.66 841.07 743.3 856.07 749.48 824.3 723.3 801.79 759.48 797.16 775.66 768.25" fill="#fff" opacity="0" stroke="#fff" stroke-miterlimit="10"/>
    <polygon id="star-13" points="1148.81 227.92 1109.66 211.2 1071.85 230.16 1077.78 192.16 1045.64 166.31 1088.46 159.55 1106.42 124.61 1126.95 158.43 1170.18 162.69 1140.05 190.35 1148.81 227.92" fill="#fff" opacity="0" stroke="#fff" stroke-miterlimit="10"/>
    <polygon id="star-12" points="1481.16 117.13 1455.95 106.44 1431.66 118.69 1435.4 94.24 1414.68 77.67 1442.21 73.25 1453.69 50.75 1466.96 72.47 1494.78 75.14 1475.45 92.98 1481.16 117.13" fill="#fff" opacity="0" stroke="#fff" stroke-miterlimit="10"/>
    <polygon id="star-11" points="1316.39 688.69 1294.46 676.44 1270.58 685.43 1277.01 663.26 1259.93 646.01 1285.84 644.55 1299.17 624.9 1308.75 646.18 1334.06 651.28 1314.07 665.89 1316.39 688.69" fill="#fff" opacity="0" stroke="#fff" stroke-miterlimit="10"/>
    <polygon id="star-10" points="1575.35 880 1549.51 872.94 1528.26 887.7 1527.89 863.85 1505.4 850.59 1531.02 842.91 1538.37 819.95 1554.56 839.06 1581.6 838.13 1565.99 857.62 1575.35 880" fill="#fff" opacity="0" stroke="#fff" stroke-miterlimit="10"/>
    <polygon id="star-9" points="1860.28 214.55 1833.18 250.33 1851.25 290.29 1804.28 278.63 1766.76 306.13 1764.83 263.14 1723.57 240.17 1769.34 225.27 1781.37 183.57 1811.59 217.35 1860.28 214.55" fill="#fff" opacity="0" stroke="#fff" stroke-miterlimit="10"/>
    <polygon id="star-8" points="187.62 120.51 165.69 108.27 141.81 117.26 148.24 95.08 131.17 77.84 157.08 76.37 170.4 56.73 179.98 78 205.29 83.1 185.31 97.71 187.62 120.51" fill="#fff" opacity="0" stroke="#fff" stroke-miterlimit="10"/>
    <polygon id="star-7" points="172.28 830.1 147.27 819.49 123.19 831.64 126.9 807.4 106.35 790.96 133.65 786.58 145.03 764.27 158.19 785.8 185.78 788.46 166.61 806.15 172.28 830.1" fill="#fff" opacity="0" stroke="#fff" stroke-miterlimit="10"/>
    <g id="red" opacity="0">
      <ellipse cx="776.14" cy="189.29" rx="149.83" ry="132.11" fill="#ba2222" stroke-width="0"/>
      <ellipse cx="720.24" cy="175.48" rx="11.18" ry="9.86" fill="#f91515" stroke-width="0"/>
      <ellipse cx="845.47" cy="155.77" rx="24.6" ry="21.69" fill="#f91515" stroke-width="0"/>
      <ellipse cx="820.87" cy="268.16" rx="13.42" ry="11.83" fill="#f91515" stroke-width="0"/>
      <ellipse cx="789.56" cy="216.89" rx="13.42" ry="11.83" fill="#f91515" stroke-width="0"/>
      <ellipse cx="762.73" cy="106.47" rx="13.42" ry="11.83" fill="#f91515" stroke-width="0"/>
      <ellipse cx="720.55" cy="261.38" rx="24.6" ry="21.69" fill="#f91515" stroke-width="0"/>
    </g>
    <g id="blue" opacity="0">
      <ellipse cx="1603.53" cy="589.62" rx="149.83" ry="132.11" fill="#2f7fc1" stroke-width="0"/>
      <ellipse cx="1547.62" cy="575.82" rx="11.18" ry="9.86" fill="#16ddf7" stroke-width="0"/>
      <ellipse cx="1672.85" cy="556.1" rx="24.6" ry="21.69" fill="#16ddf7" stroke-width="0"/>
      <ellipse cx="1648.25" cy="668.5" rx="13.42" ry="11.83" fill="#16ddf7" stroke-width="0"/>
      <ellipse cx="1616.95" cy="617.23" rx="13.42" ry="11.83" fill="#16ddf7" stroke-width="0"/>
      <ellipse cx="1590.11" cy="506.81" rx="13.42" ry="11.83" fill="#16ddf7" stroke-width="0"/>
      <ellipse cx="1547.93" cy="661.72" rx="24.6" ry="21.69" fill="#16ddf7" stroke-width="0"/>
    </g>
    <g id="scene3-rocket" opacity="0">
    <rect id="rocket-collider" opacity="0.01" x="897.76" y="412.89" width="148" height="267" fill="#000" stroke-width="0"/>
    <g id="rocket-3">
      <g>
        <path d="m961.27,414.36l-36.58,55.86c-1.84,2.81.18,6.54,3.53,6.54h73.16c3.36,0,5.37-3.73,3.53-6.54l-36.58-55.86c-1.67-2.55-5.4-2.55-7.07,0Z" fill="#e53e3e" stroke-width="0"/>
        <path d="m1001.87,550.46c18.41,8.31,37.12,17.22,50.56,31.08,2.65,2.73,5.1,5.69,6.53,9.05,1.3,3.05,1.72,6.33,2.14,9.57,1.05,8.29,2.11,16.61,2.02,24.96-9.18-5.74-18.36-11.48-27.53-17.22-9.89-6.19-20.49-12.6-32.6-13.22" fill="#e53e3e" stroke-width="0"/>
        <path d="m928.01,550.1c-18.41,8.31-37.12,17.22-50.56,31.08-2.65,2.73-5.1,5.69-6.53,9.05-1.3,3.05-1.72,6.33-2.14,9.57-1.05,8.29-2.11,16.61-2.02,24.96,9.18-5.74,18.36-11.48,27.53-17.22,9.89-6.19,20.49-12.6,32.6-13.22" fill="#e53e3e" stroke-width="0"/>
        <rect x="945.45" y="636.09" width="38.25" height="11.24" rx="2.39" ry="2.39" fill="#e6e7e8" stroke-width="0"/>
        <path d="m923.94,472.38h81.68v150.33c0,9.09-7.38,16.46-16.46,16.46h-48.76c-9.09,0-16.46-7.38-16.46-16.46v-150.33h0Z" fill="#9eadb7" stroke-width="0"/>
      <g>
        <ellipse cx="964.58" cy="516.64" rx="25.6" ry="22.57" fill="#231f20" stroke-width="0"/>
        <ellipse cx="965.13" cy="516.79" rx="18.33" ry="16.17" fill="#2331e2" stroke-width="0"/>
      </g>
      </g>
        <g>
          <path d="m983.29,651.21c3.59,2.22,8.87,2.55,12.21,5.06,9.19,6.92,19.28,12.88,28.44,19.84,9.16,6.96,17.52,15.14,21.98,25.05-18.46-4.79-36.56-10.65-54.15-17.52,2.59,5.04,1.09,10.95-1.1,16.13-2.19,5.18-5.08,10.32-5.19,15.85-6.3-10.31-12.01-20.9-17.08-31.72-5.02,6.84-10.04,13.68-15.06,20.52-2.35-7.13-3.13-14.66-2.3-22.05-12.8,4.01-26.16,6.61-39.67,7.74-.43-.49-.85-.99-1.28-1.48,12.73-12.66,25.1-25.6,37.08-38.81,4.12-.88,6.97-1.47,10.41-3.66,9.55,1.37,17.83.15,25.75,5.05Z" fill="#d22" stroke="#d22" stroke-miterlimit="10" stroke-width="2"/>
          <path d="m978.7,655.26c2.59,1.6,6.41,1.84,8.82,3.65,6.65,5,13.94,9.31,20.56,14.34,6.62,5.03,12.66,10.94,15.88,18.1-13.34-3.46-26.43-7.7-39.14-12.67,1.87,3.64.79,7.91-.8,11.66-1.58,3.75-3.67,7.46-3.75,11.46-4.56-7.45-8.68-15.1-12.35-22.93-3.63,4.94-7.26,9.89-10.89,14.83-1.7-5.16-2.26-10.6-1.66-15.94-9.25,2.9-18.91,4.78-28.68,5.6-.31-.36-.62-.72-.92-1.07,9.2-9.15,18.14-18.5,26.8-28.06,2.97-.64,5.04-1.06,7.52-2.64,6.9.99,12.89.11,18.61,3.65Z" fill="#db9523" stroke="#db6d23" stroke-miterlimit="10" stroke-width="2"/>
        </g>
      </g>
    </g>
    <g id="yellow" opacity="0">
      <ellipse cx="319.96" cy="538.27" rx="149.83" ry="132.11" fill="#d1c23b" stroke-width="0"/>
      <ellipse cx="308.22" cy="549.43" rx="18.49" ry="264" transform="translate(-320.35 507.3) rotate(-56.87)" fill="#f4b519" stroke-width="0"/>
    </g>
    <g id="tilt-to-explore">
      <path d="m1276.65,993.89v-40.02h-11.36v-4.98h34.02v4.98h-11.36v40.02h-11.29Z" fill="#fff" stroke-width="0"/>
      <path d="m1304.95,953.87v-4.98h11.36v4.98h-11.36Zm0,40.02v-34.98h11.36v34.98h-11.36Z" fill="#fff" stroke-width="0"/>
      <path d="m1327.61,993.89v-45h11.36v45h-11.36Z" fill="#fff" stroke-width="0"/>
      <path d="m1355.99,948.89h11.29v10.02h5.72v4.98h-5.72v19.98c0,1.64.61,2.89,1.84,3.75s2.34,1.29,3.33,1.29h.54v4.98h-5.72c-3.08,0-5.74-.98-7.96-2.94-2.22-1.96-3.33-4.32-3.33-7.08v-19.98h-5.72v-4.98h5.72v-10.02Z" fill="#fff" stroke-width="0"/>
      <path d="m1407.02,948.89h11.29v10.02h5.72v4.98h-5.72v19.98c0,1.64.61,2.89,1.84,3.75s2.34,1.29,3.33,1.29h.54v4.98h-5.72c-3.08,0-5.74-.98-7.96-2.94-2.22-1.96-3.33-4.32-3.33-7.08v-19.98h-5.72v-4.98h5.72v-10.02Z" fill="#fff" stroke-width="0"/>
      <path d="m1446.7,958.91h11.36c3.08,0,5.74.98,7.96,2.94,2.22,1.96,3.33,4.3,3.33,7.02v15c0,2.72-1.11,5.07-3.33,7.05-2.22,1.98-4.88,2.97-7.96,2.97h-11.36c-3.09,0-5.75-.98-8-2.94-2.25-1.96-3.37-4.32-3.37-7.08v-15c0-2.72,1.12-5.06,3.37-7.02,2.25-1.96,4.91-2.94,8-2.94Zm0,9.96v15c0,1.36.55,2.54,1.67,3.54,1.11,1,2.44,1.5,3.98,1.5s2.94-.5,4.05-1.5c1.11-1,1.67-2.18,1.67-3.54v-15c0-1.36-.56-2.53-1.67-3.51-1.11-.98-2.46-1.47-4.05-1.47s-2.87.49-3.98,1.47c-1.11.98-1.67,2.15-1.67,3.51Z" fill="#fff" stroke-width="0"/>
      <path d="m1531.75,978.89h-22.66v4.98c0,1.36.55,2.54,1.67,3.54,1.11,1,2.44,1.5,3.98,1.5h5.72c3.77,0,5.65-1.68,5.65-5.04h5.65c-.86,6.68-4.63,10.02-11.3,10.02h-11.36c-3.09,0-5.75-.98-8-2.94-2.25-1.96-3.37-4.32-3.37-7.08v-15c0-2.72,1.12-5.06,3.37-7.02,2.25-1.96,4.91-2.94,8-2.94h11.36c3.08,0,5.74.98,7.96,2.94,2.22,1.96,3.33,4.3,3.33,7.02v10.02Zm-22.66-4.98h11.36v-5.04c0-1.36-.56-2.53-1.67-3.51-1.11-.98-2.46-1.47-4.05-1.47s-2.87.49-3.98,1.47c-1.11.98-1.67,2.15-1.67,3.51v5.04Z" fill="#fff" stroke-width="0"/>
      <path d="m1543.12,993.89v-7.5c0-2.96.95-5.27,2.86-6.93s4.74-2.69,8.51-3.09c-3.77-.36-6.6-1.38-8.51-3.06s-2.86-3.98-2.86-6.9v-7.5h11.36v9.96c0,1.4.55,2.59,1.67,3.57,1.11.98,2.44,1.47,3.98,1.47s2.94-.49,4.05-1.47c1.11-.98,1.67-2.17,1.67-3.57v-9.96h11.3v7.5c0,2.92-.94,5.22-2.82,6.9-1.88,1.68-4.71,2.7-8.47,3.06,3.77.4,6.59,1.44,8.47,3.12,1.88,1.68,2.82,3.98,2.82,6.9v7.5h-11.3v-10.02c0-1.36-.56-2.53-1.67-3.51-1.11-.98-2.46-1.47-4.05-1.47s-2.87.49-3.98,1.47c-1.11.98-1.67,2.15-1.67,3.51v10.02h-11.36Z" fill="#fff" stroke-width="0"/>
      <path d="m1588.5,958.91h11.36v4.98c0-1.68.48-2.93,1.43-3.75.95-.82,2.36-1.23,4.22-1.23h5.72c3.08,0,5.74.98,7.96,2.94,2.22,1.96,3.33,4.3,3.33,7.02v15c0,2.76-1.11,5.12-3.33,7.08-2.22,1.96-4.88,2.94-7.96,2.94h-11.36v10.02h-11.36v-45Zm11.36,30h5.65c1.59,0,2.94-.49,4.05-1.47,1.11-.98,1.67-2.17,1.67-3.57v-15c0-1.36-.56-2.53-1.67-3.51-1.11-.98-2.46-1.47-4.05-1.47s-2.87.49-3.98,1.47c-1.11.98-1.67,2.15-1.67,3.51v20.04Z" fill="#fff" stroke-width="0"/>
      <path d="m1633.89,993.89v-45h11.36v45h-11.36Z" fill="#fff" stroke-width="0"/>
      <path d="m1667.91,958.91h11.36c3.08,0,5.74.98,7.96,2.94,2.22,1.96,3.33,4.3,3.33,7.02v15c0,2.72-1.11,5.07-3.33,7.05-2.22,1.98-4.88,2.97-7.96,2.97h-11.36c-3.09,0-5.75-.98-8-2.94-2.25-1.96-3.37-4.32-3.37-7.08v-15c0-2.72,1.12-5.06,3.37-7.02,2.25-1.96,4.91-2.94,8-2.94Zm0,9.96v15c0,1.36.55,2.54,1.67,3.54,1.11,1,2.44,1.5,3.98,1.5s2.94-.5,4.05-1.5c1.11-1,1.67-2.18,1.67-3.54v-15c0-1.36-.56-2.53-1.67-3.51-1.11-.98-2.46-1.47-4.05-1.47s-2.87.49-3.98,1.47c-1.11.98-1.67,2.15-1.67,3.51Z" fill="#fff" stroke-width="0"/>
      <path d="m1713.3,993.89h-11.36v-34.98h11.36v9.96c.45-3.32,1.62-5.81,3.5-7.47,1.88-1.66,4.5-2.49,7.86-2.49h5.65v9.96h-11.36c-1.54,0-2.87.49-3.98,1.47-1.11.98-1.67,2.17-1.67,3.57v19.98Z" fill="#fff" stroke-width="0"/>
      <path d="m1769.98,978.89h-22.66v4.98c0,1.36.55,2.54,1.67,3.54,1.11,1,2.44,1.5,3.98,1.5h5.72c3.77,0,5.65-1.68,5.65-5.04h5.65c-.86,6.68-4.63,10.02-11.3,10.02h-11.36c-3.09,0-5.75-.98-8-2.94-2.25-1.96-3.37-4.32-3.37-7.08v-15c0-2.72,1.12-5.06,3.37-7.02,2.25-1.96,4.91-2.94,8-2.94h11.36c3.08,0,5.74.98,7.96,2.94,2.22,1.96,3.33,4.3,3.33,7.02v10.02Zm-22.66-4.98h11.36v-5.04c0-1.36-.56-2.53-1.67-3.51-1.11-.98-2.46-1.47-4.05-1.47s-2.87.49-3.98,1.47c-1.11.98-1.67,2.15-1.67,3.51v5.04Z" fill="#fff" stroke-width="0"/>
      <path d="m1787.06,978.89v-30h11.29v30h-11.29Zm0,15v-10.02h11.29v10.02h-11.29Z" fill="#fff" stroke-width="0"/>
    </g>
    <polygon id="star-6" points="1848.89 885.27 1826.96 873.03 1803.08 882.02 1809.51 859.84 1792.43 842.59 1818.34 841.13 1831.67 821.48 1841.25 842.76 1866.56 847.86 1846.57 862.47 1848.89 885.27" fill="#8e8e8e" opacity="0" stroke-width="0"/>
    <polygon id="star-5" points="1353.14 384.7 1331.2 372.46 1307.33 381.45 1313.76 359.27 1296.68 342.03 1322.59 340.56 1335.91 320.92 1345.5 342.19 1370.81 347.29 1350.82 361.9 1353.14 384.7" fill="#8e8e8e" opacity="0" stroke-width="0"/>
    <polygon id="star-4" points="1188.35 917.71 1166.41 905.47 1142.54 914.46 1148.97 892.28 1131.89 875.03 1157.8 873.57 1171.12 853.92 1180.71 875.2 1206.02 880.3 1186.03 894.91 1188.35 917.71" fill="#8e8e8e" opacity="0" stroke-width="0"/>
    <polygon id="star-3" points="470.63 980.71 448.69 968.47 424.82 977.46 431.25 955.28 414.17 938.03 440.08 936.57 453.4 916.92 462.99 938.2 488.3 943.3 468.31 957.91 470.63 980.71" fill="#8e8e8e" opacity="0" stroke-width="0"/>
    <polygon id="star-2" points="1004.59 581.45 982.65 569.21 958.77 578.2 965.2 556.02 948.13 538.77 974.04 537.31 987.36 517.66 996.94 538.94 1022.25 544.04 1002.27 558.65 1004.59 581.45" fill="#8e8e8e" opacity="0" stroke-width="0"/>
    <polygon id="star-1" points="267.49 324.17 245.55 311.92 221.68 320.92 228.11 298.74 211.03 281.49 236.94 280.03 250.26 260.38 259.85 281.66 285.16 286.76 265.17 301.37 267.49 324.17" fill="#8e8e8e" opacity="0" stroke-width="0"/>
    <g id="starT-3" opacity="0">
      <rect id="starT-3-collide" opacity="0.1" x="431.81" y="737.89" width="38" height="30" fill="#dd7300" stroke-width="0"/>
      <polygon points="483.55 786.91 454.5 776.43 429.39 794.41 430.39 763.54 405.53 745.23 435.19 736.63 444.93 707.33 462.27 732.88 493.15 733.09 474.2 757.48 483.55 786.91" fill="#dd7300" stroke-width="0"/>
    </g>
    <g id="starT-2" opacity="0">
      <polygon points="1594.55 315.91 1565.5 305.43 1540.39 323.41 1541.39 292.54 1516.53 274.23 1546.19 265.63 1555.93 236.33 1573.27 261.88 1604.15 262.09 1585.2 286.48 1594.55 315.91" fill="#dd7300" stroke-width="0"/>
      <rect id="starT-2-collide" x="1542.81" y="266.89" width="38" height="30" fill="#dd7300" stroke-width="0"/>
    </g>
    <g id="starT-1" opacity="0">
      <polygon points="1407.55 891.91 1378.5 881.43 1353.39 899.41 1354.39 868.54 1329.53 850.23 1359.19 841.63 1368.93 812.33 1386.27 837.88 1417.15 838.09 1398.2 862.48 1407.55 891.91" fill="#dd7300" stroke-width="0"/>
      <rect id="starT-1-collide" x="1355.81" y="842.89" width="38" height="30" fill="#dd7300" stroke-width="0"/>
    </g>
    <g id="scene3-moon" opacity="0">
      <rect id="collide-box" x="342" y="117" width="88" height="76.83" fill="#000" stroke-width="0"/>
      <g id="moon-3">
        <circle cx="386.76" cy="148.78" r="64" fill="#fff" stroke="#231f20" stroke-miterlimit="10" stroke-width="9"/>
        <ellipse cx="383.67" cy="146.39" rx="58.02" ry="58.01" fill="#d6d6d6" stroke-width="0"/>
        <circle cx="368.04" cy="102.29" r="4.83" fill="#fff" stroke="#231f20" stroke-miterlimit="10" stroke-width="3"/>
        <circle cx="400.64" cy="157.84" r="8.45" fill="#fff" stroke="#231f20" stroke-miterlimit="10" stroke-width="3"/>
        <circle cx="409.1" cy="121.61" r="10.87" fill="#fff" stroke="#231f20" stroke-miterlimit="10" stroke-width="3"/>
        <circle cx="372.87" cy="190.44" r="10.87" fill="#fff" stroke="#231f20" stroke-miterlimit="10" stroke-width="3"/>
        <circle cx="352.94" cy="149.99" r="10.26" fill="#fff" stroke="#231f20" stroke-miterlimit="10" stroke-width="3"/>
        <circle cx="429.62" cy="165.08" r="7.25" fill="#fff" stroke="#231f20" stroke-miterlimit="10" stroke-width="3"/>
      </g>
    </g>
  </g>
</svg>