<?xml version="1.0" encoding="UTF-8"?>
<svg id="scene4SVG" xmlns="http://www.w3.org/2000/svg" viewBox="0 0 1920 1080">
  <g id="scene4Wrapper">
    <rect id="scene4-bg" x="-.43" y=".45" width="1922.84" height="1077.59" stroke="#000" stroke-miterlimit="10" stroke-width=".75"/>
    <g id="moon-surface" opacity="0">
      <path d="m1.59,1080c69.85-82,195.68-202.28,392.87-264.71,60.71-19.22,112.61-26.83,216.41-42.05,258.05-37.84,460.46-33.84,533.12-31.46,170.43,5.59,307.69,11.12,470.4,66.86,121.51,41.63,186.7,87.1,232.96,137.65,45.46,49.67,68.49,99.7,80.64,133.72" fill="#e2e2e2" stroke-width="0"/>
      <path d="m50.87,1062.84c61.08-68.02,171.1-167.79,343.53-219.57,53.09-15.94,98.47-22.26,189.24-34.88,225.64-31.39,402.63-28.07,466.17-26.1,149.02,4.63,269.05,9.22,411.33,55.46,106.25,34.53,163.26,72.25,203.71,114.17,39.75,41.2,59.89,82.7,70.51,110.91" fill="#bababa" opacity=".49" stroke-width="0"/>
      <path d="m298.66,941.39c-2.21,5.21-4.24,10.58-4.36,16.14-.36,18.21,19.16,31.54,37.7,39.7,57.63,25.34,126.22,30.84,188.13,15.07,22.88-5.83,45.6-14.93,61.1-30.82,15.49-15.89,22.1-39.76,11.05-58.3-22.32-37.45-110.9-57.82-156.03-57.73-61.93.13-115.6,24.07-137.6,75.94Z" fill="#939393" opacity=".59" stroke="#878787" stroke-miterlimit="10" stroke-width="5"/>
      <path d="m752.35,797.6c-10.97,6.58-19.52,17.12-20.08,28.78-.35,7.3,2.37,14.42,5.06,21.34,4.63,11.92,9.26,23.83,13.89,35.75,1.95,5.02,3.93,10.09,7.2,14.55,9.68,13.2,28.59,18.52,46.3,20.71,36.21,4.47,73.84-.34,107.09-13.69,7.12-2.86,14.24-6.24,19.15-11.59,5.35-5.84,7.68-13.62,13.79-18.84,8.01-6.84,23.04-11.3,20.79-20.91-.78-3.34-3.74-5.92-6.74-8.09-9.74-7.04-21.47-11.93-33.83-14.11-6.43-1.13-13.23-1.61-18.86-4.55-22.81-11.92-33.47-38.04-61.61-44.21-26.02-5.7-70.27,1.74-92.14,14.87Z" fill="#939393" opacity=".59" stroke="#878787" stroke-miterlimit="10" stroke-width="5"/>
      <path d="m1558.95,904.46c-31.85-7.56-65.23-10.1-98.08-7.45-3.65.29-7.37.67-10.68,2.05-7.01,2.92-10.72,9.61-13.92,15.81-6.66,12.94-13.34,28.05-6.19,40.8,6.71,11.96,22.92,16.85,37.62,20.17,69.11,15.61,141.01,21.66,212.23,17.87,2.82-.15,5.77-.36,8.13-1.72,2.12-1.23,3.48-3.24,4.55-5.26,6.31-11.91,4.92-26.24-1.38-38.16-6.3-11.91-17.08-21.64-29.03-29.54-40.55-26.81-97.18-33.62-144.44-17.35" fill="#939393" opacity=".59" stroke="#878787" stroke-miterlimit="10" stroke-width="5"/>
      <path d="m965.05,1050.29c9.41-43.57,50.64-80.5,100.07-89.65,28.86-5.34,58.77-1.86,87.98,1.71,25.73,3.14,52.3,6.6,74.35,18.65,7.84,4.29,14.98,9.61,23.3,13.14,11.11,4.72,23.63,5.99,35.61,8.58,37.56,8.11,70.9,30.27,89.99,59.8l-411.29-12.23Z" fill="#939393" opacity=".59" stroke="#878787" stroke-miterlimit="10" stroke-width="5"/>
    </g>
    <g id="scene4-rocket" opacity="0">
      <path d="m655.45,560.02l-51.57,78.42c-2.6,3.95.24,9.21,4.97,9.21h103.15c4.73,0,7.56-5.26,4.97-9.21l-51.57-78.42c-2.35-3.57-7.58-3.57-9.93,0Z" fill="#e53e3e" stroke-width="0"/>
      <path d="m712.68,751.1c25.96,11.67,52.35,24.17,71.29,43.64,3.73,3.84,7.19,7.98,9.21,12.71,1.84,4.28,2.43,8.89,3.01,13.44,1.49,11.64,2.98,23.32,2.85,35.04-12.94-8.06-25.88-16.11-38.82-24.17-13.95-8.68-28.89-17.69-45.96-18.55" fill="#e53e3e" stroke-width="0"/>
      <path d="m608.54,750.6c-25.96,11.67-52.35,24.17-71.29,43.64-3.73,3.84-7.19,7.98-9.21,12.71-1.84,4.28-2.43,8.89-3.01,13.44-1.49,11.64-2.98,23.32-2.85,35.04,12.94-8.06,25.88-16.11,38.82-24.17,13.95-8.68,28.89-17.69,45.96-18.55" fill="#e53e3e" stroke-width="0"/>
      <rect x="633.12" y="871.3" width="53.93" height="15.78" rx="3.37" ry="3.37" fill="#e6e7e8" stroke-width="0"/>
      <path d="m602.79,641.49h115.18v210.99c0,12.78-10.38,23.16-23.16,23.16h-68.86c-12.78,0-23.16-10.38-23.16-23.16v-210.99h0Z" fill="#9eadb7" stroke-width="0"/>
      <g>
        <ellipse cx="660.09" cy="703.62" rx="36.09" ry="31.68" fill="#231f20" stroke-width="0"/>
        <ellipse cx="660.87" cy="703.83" rx="25.85" ry="22.69" fill="#2331e2" stroke-width="0"/>
      </g>
    </g>
    <polygon id="star4-9" points="1750.31 252.41 1734.41 243.77 1717.29 250.36 1721.74 234.42 1709.31 222.15 1727.96 220.95 1737.4 206.78 1744.47 221.98 1762.74 225.48 1748.46 236.08 1750.31 252.41" fill="#fff" opacity="0" stroke="#fff" stroke-miterlimit="10"/>
    <polygon id="star4-8" points="828.15 435.97 838.54 454.44 861.75 457.4 844.95 471.77 848.92 492.07 828.15 482.49 807.39 492.07 811.35 471.77 794.55 457.4 817.77 454.44 828.15 435.97" fill="#fff" opacity="0" stroke="#fff" stroke-miterlimit="10"/>
    <polygon id="star4-7" points="1134.16 246.05 1115.03 237.92 1096.55 247.14 1099.45 228.66 1083.75 216.09 1104.67 212.79 1113.45 195.8 1123.48 212.25 1144.6 214.32 1129.88 227.78 1134.16 246.05" fill="#fff" opacity="0" stroke="#fff" stroke-miterlimit="10"/>
    <polygon id="star4-6" points="1407.15 129.3 1381.89 118.64 1357.57 130.86 1361.32 106.47 1340.56 89.94 1368.13 85.53 1379.63 63.1 1392.93 84.76 1420.79 87.42 1401.43 105.21 1407.15 129.3" fill="#fff" opacity="0" stroke="#fff" stroke-miterlimit="10"/>
    <polygon id="star4-5" points="1468.77 691.9 1446.8 679.69 1422.88 688.65 1429.32 666.53 1412.22 649.34 1438.17 647.88 1451.51 628.29 1461.11 649.5 1486.47 654.59 1466.45 669.16 1468.77 691.9" fill="#fff" opacity="0" stroke="#fff" stroke-miterlimit="10"/>
    <polygon id="star4-4" points="1798.21 586.91 1772.33 579.86 1751.04 594.59 1750.68 570.8 1728.15 557.58 1753.81 549.92 1761.17 527.03 1777.39 546.08 1804.47 545.16 1788.84 564.59 1798.21 586.91" fill="#fff" opacity="0" stroke="#fff" stroke-miterlimit="10"/>
    <polygon id="star4-3" points="931.27 103.01 904.13 138.7 922.23 178.55 875.19 166.92 837.6 194.34 835.67 151.47 794.34 128.56 840.19 113.7 852.23 72.12 882.5 105.81 931.27 103.01" fill="#fff" opacity="0" stroke="#fff" stroke-miterlimit="10"/>
    <polygon id="star4-2" points="245.66 158.6 223.69 146.39 199.77 155.36 206.21 133.24 189.11 116.04 215.06 114.58 228.41 94.99 238.01 116.21 263.36 121.29 243.34 135.86 245.66 158.6" fill="#fff" opacity="0" stroke="#fff" stroke-miterlimit="10"/>
    <polygon id="star4-1" points="206.25 651.83 181.2 641.25 157.08 653.37 160.8 629.19 140.21 612.8 167.56 608.43 178.96 586.18 192.14 607.66 219.77 610.3 200.58 627.94 206.25 651.83" fill="#fff" opacity="0" stroke="#fff" stroke-miterlimit="10"/>
    <path id="umbilical-cord" d="m719.26,680.44c46.64-3.41,85.75-31.57,118.6-60.84,32.84-29.27,64.2-61.84,106.9-78.66,12.9-5.08,27.03-8.63,41.09-7.3,20.89,1.98,38.8,14.32,59.43,17.82,21.57,3.66,44.11-2.86,62.23-13.76,18.12-10.9,32.5-25.87,46.25-40.9,10.46-11.43,21.06-23.31,35.54-30.62,14.48-7.31,34.05-8.97,47.2.06" fill="none" opacity="0" stroke="#aaa74b" stroke-linecap="round" stroke-miterlimit="10" stroke-width="11"/>
    <g id="astronaut" opacity="0">
      <g>
        <line x1="1262.72" y1="511.71" x2="1267.2" y2="566.77" fill="none" stroke="#cecece" stroke-linecap="round" stroke-miterlimit="10" stroke-width="5"/>
        <line x1="1320.96" y1="511.71" x2="1334.4" y2="566.77" fill="none" stroke="#cecece" stroke-linecap="round" stroke-miterlimit="10" stroke-width="5"/>
        <line x1="1262.72" y1="578.57" x2="1289.6" y2="578.57" fill="none" stroke="#363f3e" stroke-linecap="round" stroke-miterlimit="10" stroke-width="5"/>
        <line x1="1334.4" y1="578.57" x2="1356.8" y2="578.57" fill="none" stroke="#363f3e" stroke-linecap="round" stroke-miterlimit="10" stroke-width="5"/>
      </g>
      <ellipse cx="1289.6" cy="466.48" rx="53.76" ry="53.09" fill="#cecece" stroke="#cecece" stroke-linecap="round" stroke-miterlimit="10" stroke-width="5"/>
      <path d="m1183.6,403.28c.68,8.42,6.84,15.91,14.51,20.99,7.68,5.08,16.81,8.13,25.8,11.12,25.31,8.4,50.87,16.86,77.66,20.18,6.9.86,13.91,1.37,20.83.65,16.18-1.68,30.86-10.18,40.81-21.5,9.95-11.32,15.49-25.27,18.02-39.4" fill="none" stroke="#cecece" stroke-linecap="round" stroke-miterlimit="10" stroke-width="5"/>
      <ellipse cx="1287.94" cy="356.22" rx="66.86" ry="58.69" fill="#cecece" stroke="#cecece" stroke-linecap="round" stroke-miterlimit="10" stroke-width="3"/>
      <ellipse cx="1290.41" cy="358.42" rx="66.3" ry="49.47" fill="#0d1449" stroke-width="0"/>
      <rect x="1247.04" y="446.82" width="89.6" height="43.26" rx="21.63" ry="21.63" fill="#06ccaf" stroke-width="0"/>
      <path d="m1271.01,333.66c-14.46,4.82-22.83,20.51-17.79,33.34" fill="none" stroke="#06ccaf" stroke-miterlimit="10" stroke-width="5"/>
    </g>
    <g id="earth" opacity="0">
      <ellipse cx="541.43" cy="334.74" rx="150.08" ry="131.75" fill="#05a9c4" stroke-width="0"/>
      <path d="m460.82,329.67c2.51-.16,5.12-.47,7.21-1.69,2.53-1.47,3.93-4.07,4.66-6.67,1.56-5.58.45-11.69-3.01-16.56-2.71-3.82-6.99-7.98-5.01-12.13.95-1.98,3.14-3.27,5.34-4.21,6-2.57,12.77-3.4,18.98-5.55,6.21-2.15,12.28-6.26,13.32-12.05,1.25-6.95-5.54-13.43-13.21-15.45-7.67-2.02-15.91-.73-23.78.58-2.19.36-4.6.84-5.91,2.42-.76.91-1.03,2.06-1.21,3.18-.61,3.72-.46,7.53.43,11.21.27,1.1.59,2.27.13,3.32-.55,1.26-2.07,1.95-3.51,2.43-5.39,1.79-11.27,2.05-16.87,3.25-5.6,1.2-11.34,3.7-13.79,8.28-3.13,5.85.15,12.02,3,17.36,2.67,5.02,2.84,8.87,4.21,14.08,2.69,10.17,19.27,8.83,29.02,8.2Z" fill="#1fad26" stroke-width="0"/>
      <path d="m613.76,400.48c-3.78-1.79-8.11-2.66-12.4-2.52-1.94.07-3.94.33-5.76-.25-1.57-.49-2.82-1.55-3.9-2.67-7.01-7.2-8.82-18-4.47-26.67,2.13-4.25,5.43-9.63,1.71-12.93-2.96-2.62-8-1.42-11.77.2-14.21,6.11-26.33,15.92-34.43,27.86-2.33,3.43-4.38,7.23-4.22,11.22.16,3.93,2.46,7.55,5.06,10.75,2.97,3.64,6.52,7.04,11.03,9.14,3.63,1.69,7.95,2.36,11.36,4.41,3.47,2.09,5.25,5.62,8.94,7.4,5.12,2.47,13.89,2.62,19.16.4,6.78-2.85,29.21-21.86,19.69-26.36Z" fill="#1fad26" stroke-width="0"/>
      <path d="m600.66,248.29c1.56-4.1-2.32-8.21-6.29-10.76-8.72-5.6-19.58-8.59-30.38-8.37-2.07.04-4.31.26-5.82,1.51-3.34,2.77-.59,7.51,1.09,11.26,3.4,7.56,1.01,16.85-5.75,22.41-6.07,4.98-15.54,7.58-18.06,14.53-2.7,7.45,4.69,14.93,12.68,18.41,12.13,5.28,27.01,5.41,39.26.34,12.25-5.07,21.61-15.22,24.69-26.8,1.45-5.46,1.57-11.11,1.41-16.71-.08-2.82-.26-5.76-1.81-8.23-3.78-6.07-13.33-6.53-21.2-6.22" fill="#1fad26" stroke-width="0"/>
      <path d="m659.97,322.86c-3.68,6.89-7,14.26-6.4,21.85.6,7.59,6.2,15.37,14.7,16.84,6.22,1.07,12.78-1.47,17.03-5.59,4.25-4.13,6.43-9.63,7.32-15.14,1.35-8.28.03-16.7-1.29-24.99-.96-6.01-3.76-21.29-13.14-16.98-8.33,3.83-14.46,16.98-18.21,24.01Z" fill="#1fad26" stroke-width="0"/>
      <path d="m480.47,414.22c-6.28-5.24-13.19-10.34-21.58-12.25s-18.57.29-22.85,6.9c-3.13,4.84-2.47,11.1.65,15.95,3.11,4.85,8.37,8.4,14.03,10.89,8.52,3.75,18.04,5.32,27.41,6.84,6.8,1.11,24.2,3.62,22.51-5.56-1.5-8.15-13.76-17.42-20.17-22.78Z" fill="#1fad26" stroke-width="0"/>
    </g>
  </g>
</svg>