<?xml version="1.0" encoding="UTF-8"?>
<?xml-stylesheet type="text/css" href="../css/style.css"?>

<svg id="scene1SVG" xmlns="http://www.w3.org/2000/svg" viewBox="0 0 1920 1080">
  <g id="scene1Wrapper">
    <g id="stick-neutral">
      <circle id="head" cx="954.94" cy="413.38" r="58.03" fill="none" stroke="#231f20" stroke-linecap="round" stroke-miterlimit="10" stroke-width="9"/>
      <g id="body">
        <line x1="954.55" y1="471.6" x2="954.55" y2="655.64" fill="none" stroke="#231f20" stroke-linecap="round" stroke-miterlimit="10" stroke-width="9"/>
        <line x1="954.55" y1="531.03" x2="1033.08" y2="578.96" fill="none" stroke="#231f20" stroke-linecap="round" stroke-miterlimit="10" stroke-width="9"/>
        <line x1="954.55" y1="531.03" x2="886.92" y2="580.87" fill="none" stroke="#231f20" stroke-linecap="round" stroke-miterlimit="10" stroke-width="9"/>
        <line x1="954.55" y1="655.64" x2="900.01" y2="722.74" fill="none" stroke="#231f20" stroke-linecap="round" stroke-miterlimit="10" stroke-width="9"/>
        <line x1="954.55" y1="655.64" x2="1013.45" y2="724.65" fill="none" stroke="#231f20" stroke-linecap="round" stroke-miterlimit="10" stroke-width="9"/>
      </g>
    </g>
    <g id="press-A-to-continue" opacity="1">
      <path d="m1281.98,992.79v-45h20.04c2.72,0,5.06.99,7.02,2.97,1.96,1.98,2.94,4.33,2.94,7.05v4.98c0,2.72-.98,5.07-2.94,7.05-1.96,1.98-4.3,2.97-7.02,2.97h-10.02v19.98h-10.02Zm10.02-25.02h4.98c1.4,0,2.59-.49,3.57-1.47s1.47-2.15,1.47-3.51v-4.98c0-1.4-.49-2.59-1.47-3.57-.98-.98-2.17-1.47-3.57-1.47h-4.98v15Z" stroke-width="0"/>
      <path d="m1332.02,992.79h-10.02v-34.98h10.02v9.96c.4-3.32,1.43-5.81,3.09-7.47,1.66-1.66,3.97-2.49,6.93-2.49h4.98v9.96h-10.02c-1.36,0-2.53.49-3.51,1.47-.98.98-1.47,2.17-1.47,3.57v19.98Z" stroke-width="0"/>
      <path d="m1382,977.79h-19.98v4.98c0,1.36.49,2.54,1.47,3.54.98,1,2.15,1.5,3.51,1.5h5.04c3.32,0,4.98-1.68,4.98-5.04h4.98c-.76,6.68-4.08,10.02-9.96,10.02h-10.02c-2.72,0-5.07-.98-7.05-2.94-1.98-1.96-2.97-4.32-2.97-7.08v-15c0-2.72.99-5.06,2.97-7.02,1.98-1.96,4.33-2.94,7.05-2.94h10.02c2.72,0,5.06.98,7.02,2.94,1.96,1.96,2.94,4.3,2.94,7.02v10.02Zm-19.98-4.98h10.02v-5.04c0-1.36-.49-2.53-1.47-3.51-.98-.98-2.17-1.47-3.57-1.47s-2.53.49-3.51,1.47c-.98.98-1.47,2.15-1.47,3.51v5.04Z" stroke-width="0"/>
      <path d="m1417.04,967.77h-4.98c-.44-3.32-2.02-4.98-4.74-4.98-1.76,0-3.08.35-3.96,1.05-.88.7-1.32,1.73-1.32,3.09,0,1.44,2.42,3.46,7.26,6.06,3.96,2.12,6.24,3.88,6.84,5.28.6,1.4.9,2.9.9,4.5,0,2.76-.98,5.12-2.94,7.08s-4.32,2.94-7.08,2.94h-4.98c-6.68,0-10.02-3.34-10.02-10.02h5.04c.4,3.36,1.96,5.04,4.68,5.04,1.8,0,3.14-.35,4.02-1.05.88-.7,1.32-1.75,1.32-3.15s-2.42-3.4-7.26-6c-3.96-2.12-6.25-3.88-6.87-5.28-.62-1.4-.93-2.9-.93-4.5,0-2.76.99-5.12,2.97-7.08,1.98-1.96,4.33-2.94,7.05-2.94h4.98c6.28,0,9.62,3.32,10.02,9.96Z" stroke-width="0"/>
      <path d="m1452.02,967.77h-4.98c-.44-3.32-2.02-4.98-4.74-4.98-1.76,0-3.08.35-3.96,1.05-.88.7-1.32,1.73-1.32,3.09,0,1.44,2.42,3.46,7.26,6.06,3.96,2.12,6.24,3.88,6.84,5.28.6,1.4.9,2.9.9,4.5,0,2.76-.98,5.12-2.94,7.08-1.96,1.96-4.32,2.94-7.08,2.94h-4.98c-6.68,0-10.02-3.34-10.02-10.02h5.04c.4,3.36,1.96,5.04,4.68,5.04,1.8,0,3.14-.35,4.02-1.05.88-.7,1.32-1.75,1.32-3.15s-2.42-3.4-7.26-6c-3.96-2.12-6.25-3.88-6.87-5.28-.62-1.4-.93-2.9-.93-4.5,0-2.76.99-5.12,2.97-7.08,1.98-1.96,4.33-2.94,7.05-2.94h4.98c6.28,0,9.62,3.32,10.02,9.96Z" stroke-width="0"/>
      <path d="m1476.98,992.79v-34.98c0-2.76.99-5.12,2.97-7.08s4.33-2.94,7.05-2.94h10.02c2.72,0,5.06.99,7.02,2.97,1.96,1.98,2.94,4.33,2.94,7.05v34.98h-9.96v-19.98h-10.02v19.98h-10.02Zm10.02-25.02h10.02v-9.96c0-1.4-.49-2.59-1.47-3.57-.98-.98-2.17-1.47-3.57-1.47s-2.53.49-3.51,1.47c-.98.98-1.47,2.17-1.47,3.57v9.96Z" stroke-width="0"/>
      <path d="m1537.04,947.79h9.96v10.02h5.04v4.98h-5.04v19.98c0,1.64.54,2.89,1.62,3.75s2.06,1.29,2.94,1.29h.48v4.98h-5.04c-2.72,0-5.06-.98-7.02-2.94-1.96-1.96-2.94-4.32-2.94-7.08v-19.98h-5.04v-4.98h5.04v-10.02Z" stroke-width="0"/>
      <path d="m1572.02,957.81h10.02c2.72,0,5.06.98,7.02,2.94,1.96,1.96,2.94,4.3,2.94,7.02v15c0,2.72-.98,5.07-2.94,7.05-1.96,1.98-4.3,2.97-7.02,2.97h-10.02c-2.72,0-5.07-.98-7.05-2.94-1.98-1.96-2.97-4.32-2.97-7.08v-15c0-2.72.99-5.06,2.97-7.02,1.98-1.96,4.33-2.94,7.05-2.94Zm0,9.96v15c0,1.36.49,2.54,1.47,3.54.98,1,2.15,1.5,3.51,1.5s2.59-.5,3.57-1.5c.98-1,1.47-2.18,1.47-3.54v-15c0-1.36-.49-2.53-1.47-3.51-.98-.98-2.17-1.47-3.57-1.47s-2.53.49-3.51,1.47-1.47,2.15-1.47,3.51Z" stroke-width="0"/>
      <path d="m1642.04,967.77h-4.98c-.44-3.32-2.02-4.98-4.74-4.98-1.76,0-3.08.35-3.96,1.05-.88.7-1.32,1.73-1.32,3.09,0,1.44,2.42,3.46,7.26,6.06,3.96,2.12,6.24,3.88,6.84,5.28.6,1.4.9,2.9.9,4.5,0,2.76-.98,5.12-2.94,7.08-1.96,1.96-4.32,2.94-7.08,2.94h-4.98c-6.68,0-10.02-3.34-10.02-10.02h5.04c.4,3.36,1.96,5.04,4.68,5.04,1.8,0,3.14-.35,4.02-1.05.88-.7,1.32-1.75,1.32-3.15s-2.42-3.4-7.26-6c-3.96-2.12-6.25-3.88-6.87-5.28-.62-1.4-.93-2.9-.93-4.5,0-2.76.99-5.12,2.97-7.08,1.98-1.96,4.33-2.94,7.05-2.94h4.98c6.28,0,9.62,3.32,10.02,9.96Z" stroke-width="0"/>
      <path d="m1657.04,947.79h9.96v10.02h5.04v4.98h-5.04v19.98c0,1.64.54,2.89,1.62,3.75s2.06,1.29,2.94,1.29h.48v4.98h-5.04c-2.72,0-5.06-.98-7.02-2.94-1.96-1.96-2.94-4.32-2.94-7.08v-19.98h-5.04v-4.98h5.04v-10.02Z" stroke-width="0"/>
      <path d="m1702.04,972.81v-5.04c0-1.36-.49-2.53-1.47-3.51-.98-.98-2.17-1.47-3.57-1.47h-4.98c-2.96,0-4.62,1.66-4.98,4.98h-5.04c.8-6.64,4.14-9.96,10.02-9.96h10.02c2.72,0,5.06.98,7.02,2.94,1.96,1.96,2.94,4.3,2.94,7.02v25.02h-9.96v-4.98c-.4,3.32-2.08,4.98-5.04,4.98h-4.98c-2.72,0-5.07-.98-7.05-2.94-1.98-1.96-2.97-4.32-2.97-7.08s.99-5.06,2.97-7.02c1.98-1.96,4.33-2.94,7.05-2.94h10.02Zm0,4.98h-5.04c-1.36,0-2.53.49-3.51,1.47s-1.47,2.15-1.47,3.51.49,2.54,1.47,3.54c.98,1,2.15,1.5,3.51,1.5s2.59-.5,3.57-1.5c.98-1,1.47-2.18,1.47-3.54v-4.98Z" stroke-width="0"/>
      <path d="m1732.04,992.79h-10.02v-34.98h10.02v9.96c.4-3.32,1.43-5.81,3.09-7.47s3.97-2.49,6.93-2.49h4.98v9.96h-10.02c-1.36,0-2.53.49-3.51,1.47s-1.47,2.17-1.47,3.57v19.98Z" stroke-width="0"/>
      <path d="m1757.06,947.79h9.96v10.02h5.04v4.98h-5.04v19.98c0,1.64.54,2.89,1.62,3.75s2.06,1.29,2.94,1.29h.48v4.98h-5.04c-2.72,0-5.06-.98-7.02-2.94-1.96-1.96-2.94-4.32-2.94-7.08v-19.98h-5.04v-4.98h5.04v-10.02Z" stroke-width="0"/>
    </g>
    <g id="press-A-to-continue-1" opacity="0">
      <path d="m1193.98,992.79v-45h20.04c2.72,0,5.06.99,7.02,2.97,1.96,1.98,2.94,4.33,2.94,7.05v4.98c0,2.72-.98,5.07-2.94,7.05-1.96,1.98-4.3,2.97-7.02,2.97h-10.02v19.98h-10.02Zm10.02-25.02h4.98c1.4,0,2.59-.49,3.57-1.47s1.47-2.15,1.47-3.51v-4.98c0-1.4-.49-2.59-1.47-3.57-.98-.98-2.17-1.47-3.57-1.47h-4.98v15Z" stroke-width="0"/>
      <path d="m1244.02,992.79h-10.02v-34.98h10.02v9.96c.4-3.32,1.43-5.81,3.09-7.47,1.66-1.66,3.97-2.49,6.93-2.49h4.98v9.96h-10.02c-1.36,0-2.53.49-3.51,1.47-.98.98-1.47,2.17-1.47,3.57v19.98Z" stroke-width="0"/>
      <path d="m1294,977.79h-19.98v4.98c0,1.36.49,2.54,1.47,3.54.98,1,2.15,1.5,3.51,1.5h5.04c3.32,0,4.98-1.68,4.98-5.04h4.98c-.76,6.68-4.08,10.02-9.96,10.02h-10.02c-2.72,0-5.07-.98-7.05-2.94-1.98-1.96-2.97-4.32-2.97-7.08v-15c0-2.72.99-5.06,2.97-7.02,1.98-1.96,4.33-2.94,7.05-2.94h10.02c2.72,0,5.06.98,7.02,2.94,1.96,1.96,2.94,4.3,2.94,7.02v10.02Zm-19.98-4.98h10.02v-5.04c0-1.36-.49-2.53-1.47-3.51-.98-.98-2.17-1.47-3.57-1.47s-2.53.49-3.51,1.47c-.98.98-1.47,2.15-1.47,3.51v5.04Z" stroke-width="0"/>
      <path d="m1329.04,967.77h-4.98c-.44-3.32-2.02-4.98-4.74-4.98-1.76,0-3.08.35-3.96,1.05-.88.7-1.32,1.73-1.32,3.09,0,1.44,2.42,3.46,7.26,6.06,3.96,2.12,6.24,3.88,6.84,5.28.6,1.4.9,2.9.9,4.5,0,2.76-.98,5.12-2.94,7.08s-4.32,2.94-7.08,2.94h-4.98c-6.68,0-10.02-3.34-10.02-10.02h5.04c.4,3.36,1.96,5.04,4.68,5.04,1.8,0,3.14-.35,4.02-1.05.88-.7,1.32-1.75,1.32-3.15s-2.42-3.4-7.26-6c-3.96-2.12-6.25-3.88-6.87-5.28-.62-1.4-.93-2.9-.93-4.5,0-2.76.99-5.12,2.97-7.08,1.98-1.96,4.33-2.94,7.05-2.94h4.98c6.28,0,9.62,3.32,10.02,9.96Z" stroke-width="0"/>
      <path d="m1364.02,967.77h-4.98c-.44-3.32-2.02-4.98-4.74-4.98-1.76,0-3.08.35-3.96,1.05-.88.7-1.32,1.73-1.32,3.09,0,1.44,2.42,3.46,7.26,6.06,3.96,2.12,6.24,3.88,6.84,5.28.6,1.4.9,2.9.9,4.5,0,2.76-.98,5.12-2.94,7.08-1.96,1.96-4.32,2.94-7.08,2.94h-4.98c-6.68,0-10.02-3.34-10.02-10.02h5.04c.4,3.36,1.96,5.04,4.68,5.04,1.8,0,3.14-.35,4.02-1.05.88-.7,1.32-1.75,1.32-3.15s-2.42-3.4-7.26-6c-3.96-2.12-6.25-3.88-6.87-5.28-.62-1.4-.93-2.9-.93-4.5,0-2.76.99-5.12,2.97-7.08,1.98-1.96,4.33-2.94,7.05-2.94h4.98c6.28,0,9.62,3.32,10.02,9.96Z" stroke-width="0"/>
      <path d="m1388.98,992.79v-34.98c0-2.76.99-5.12,2.97-7.08s4.33-2.94,7.05-2.94h10.02c2.72,0,5.06.99,7.02,2.97,1.96,1.98,2.94,4.33,2.94,7.05v34.98h-9.96v-19.98h-10.02v19.98h-10.02Zm10.02-25.02h10.02v-9.96c0-1.4-.49-2.59-1.47-3.57-.98-.98-2.17-1.47-3.57-1.47s-2.53.49-3.51,1.47c-.98.98-1.47,2.17-1.47,3.57v9.96Z" stroke-width="0"/>
      <path d="m1449.04,947.79h9.96v10.02h5.04v4.98h-5.04v19.98c0,1.64.54,2.89,1.62,3.75s2.06,1.29,2.94,1.29h.48v4.98h-5.04c-2.72,0-5.06-.98-7.02-2.94-1.96-1.96-2.94-4.32-2.94-7.08v-19.98h-5.04v-4.98h5.04v-10.02Z" stroke-width="0"/>
      <path d="m1484.02,957.81h10.02c2.72,0,5.06.98,7.02,2.94,1.96,1.96,2.94,4.3,2.94,7.02v15c0,2.72-.98,5.07-2.94,7.05-1.96,1.98-4.3,2.97-7.02,2.97h-10.02c-2.72,0-5.07-.98-7.05-2.94-1.98-1.96-2.97-4.32-2.97-7.08v-15c0-2.72.99-5.06,2.97-7.02,1.98-1.96,4.33-2.94,7.05-2.94Zm0,9.96v15c0,1.36.49,2.54,1.47,3.54.98,1,2.15,1.5,3.51,1.5s2.59-.5,3.57-1.5c.98-1,1.47-2.18,1.47-3.54v-15c0-1.36-.49-2.53-1.47-3.51-.98-.98-2.17-1.47-3.57-1.47s-2.53.49-3.51,1.47c-.98.98-1.47,2.15-1.47,3.51Z" stroke-width="0"/>
      <path d="m1554.04,967.77h-4.98c-.4-3.32-2.08-4.98-5.04-4.98-1.36,0-2.53.49-3.51,1.47-.98.98-1.47,2.15-1.47,3.51v15c0,1.36.49,2.54,1.47,3.54.98,1,2.15,1.5,3.51,1.5,2.96,0,4.64-1.68,5.04-5.04h4.98c-.4,6.68-3.74,10.02-10.02,10.02h-4.98c-2.72,0-5.07-.98-7.05-2.94-1.98-1.96-2.97-4.32-2.97-7.08v-15c0-2.72.99-5.06,2.97-7.02,1.98-1.96,4.33-2.94,7.05-2.94h4.98c6.32,0,9.66,3.32,10.02,9.96Z" stroke-width="0"/>
      <path d="m1574.02,957.81h10.02c2.72,0,5.06.98,7.02,2.94,1.96,1.96,2.94,4.3,2.94,7.02v15c0,2.72-.98,5.07-2.94,7.05-1.96,1.98-4.3,2.97-7.02,2.97h-10.02c-2.72,0-5.07-.98-7.05-2.94-1.98-1.96-2.97-4.32-2.97-7.08v-15c0-2.72.99-5.06,2.97-7.02,1.98-1.96,4.33-2.94,7.05-2.94Zm0,9.96v15c0,1.36.49,2.54,1.47,3.54.98,1,2.15,1.5,3.51,1.5s2.59-.5,3.57-1.5c.98-1,1.47-2.18,1.47-3.54v-15c0-1.36-.49-2.53-1.47-3.51-.98-.98-2.17-1.47-3.57-1.47s-2.53.49-3.51,1.47-1.47,2.15-1.47,3.51Z" stroke-width="0"/>
      <path d="m1604.02,992.79v-34.98h10.02v4.98c.2-1.68.72-2.93,1.56-3.75.84-.82,1.98-1.23,3.42-1.23h5.04c2.72,0,5.06.98,7.02,2.94,1.96,1.96,2.94,4.3,2.94,7.02v25.02h-9.96v-25.02c0-1.36-.49-2.53-1.47-3.51-.98-.98-2.17-1.47-3.57-1.47s-2.53.49-3.51,1.47-1.47,2.15-1.47,3.51v25.02h-10.02Z" stroke-width="0"/>
      <path d="m1649.08,947.79h9.96v10.02h5.04v4.98h-5.04v19.98c0,1.64.54,2.89,1.62,3.75s2.06,1.29,2.94,1.29h.48v4.98h-5.04c-2.72,0-5.06-.98-7.02-2.94-1.96-1.96-2.94-4.32-2.94-7.08v-19.98h-5.04v-4.98h5.04v-10.02Z" stroke-width="0"/>
      <path d="m1674.04,952.77v-4.98h10.02v4.98h-10.02Zm0,40.02v-34.98h10.02v34.98h-10.02Z" stroke-width="0"/>
      <path d="m1694.02,992.79v-34.98h10.02v4.98c.2-1.68.72-2.93,1.56-3.75.84-.82,1.98-1.23,3.42-1.23h5.04c2.72,0,5.06.98,7.02,2.94,1.96,1.96,2.94,4.3,2.94,7.02v25.02h-9.96v-25.02c0-1.36-.49-2.53-1.47-3.51-.98-.98-2.17-1.47-3.57-1.47s-2.53.49-3.51,1.47-1.47,2.15-1.47,3.51v25.02h-10.02Z" stroke-width="0"/>
      <path d="m1764.04,957.81v34.98h-9.96v-4.98c-.4,3.32-2.08,4.98-5.04,4.98h-4.98c-2.72,0-5.07-.98-7.05-2.94-1.98-1.96-2.97-4.32-2.97-7.08v-24.96h10.02v24.96c0,1.36.49,2.54,1.47,3.54.98,1,2.15,1.5,3.51,1.5s2.59-.5,3.57-1.5c.98-1,1.47-2.18,1.47-3.54v-24.96h9.96Z" stroke-width="0"/>
      <path d="m1804.05,977.79h-19.98v4.98c0,1.36.49,2.54,1.47,3.54.98,1,2.15,1.5,3.51,1.5h5.04c3.32,0,4.98-1.68,4.98-5.04h4.98c-.76,6.68-4.08,10.02-9.96,10.02h-10.02c-2.72,0-5.07-.98-7.05-2.94-1.98-1.96-2.97-4.32-2.97-7.08v-15c0-2.72.99-5.06,2.97-7.02,1.98-1.96,4.33-2.94,7.05-2.94h10.02c2.72,0,5.06.98,7.02,2.94,1.96,1.96,2.94,4.3,2.94,7.02v10.02Zm-19.98-4.98h10.02v-5.04c0-1.36-.49-2.53-1.47-3.51-.98-.98-2.17-1.47-3.57-1.47s-2.53.49-3.51,1.47-1.47,2.15-1.47,3.51v5.04Z" stroke-width="0"/>
    </g>
    <g id="moon">
      <circle cx="960.16" cy="340.05" r="185.95" fill="#fff" stroke="#231f20" stroke-miterlimit="10" stroke-width="9"/>
      <ellipse cx="951.18" cy="333.1" rx="168.58" ry="168.55" fill="#d6d6d6" stroke-width="0"/>
      <circle cx="905.78" cy="204.97" r="14.03" fill="#fff" stroke="#231f20" stroke-miterlimit="10" stroke-width="9"/>
      <circle cx="1000.51" cy="366.36" r="24.56" fill="#fff" stroke="#231f20" stroke-miterlimit="10" stroke-width="9"/>
      <circle cx="1025.07" cy="261.11" r="31.58" fill="#fff" stroke="#231f20" stroke-miterlimit="10" stroke-width="9"/>
      <circle cx="919.81" cy="461.09" r="31.58" fill="#fff" stroke="#231f20" stroke-miterlimit="10" stroke-width="9"/>
      <circle cx="861.92" cy="343.56" r="29.82" fill="#fff" stroke="#231f20" stroke-miterlimit="10" stroke-width="9"/>
      <circle cx="1084.71" cy="387.41" r="21.05" fill="#fff" stroke="#231f20" stroke-miterlimit="10" stroke-width="9"/>
    </g>
    <g id="stick-squat" opacity="0">
      <g id="body-2" data-name="body">
        <line x1="954.09" y1="550.98" x2="954.09" y2="674.63" fill="none" stroke="#231f20" stroke-linecap="round" stroke-miterlimit="10" stroke-width="9"/>
        <line x1="954.09" y1="674.63" x2="892.03" y2="719.71" fill="none" stroke="#231f20" stroke-linecap="round" stroke-miterlimit="10" stroke-width="9"/>
        <line x1="954.09" y1="674.63" x2="1021.11" y2="721" fill="none" stroke="#231f20" stroke-linecap="round" stroke-miterlimit="10" stroke-width="9"/>
      </g>
      <path id="arms" d="m838.02,483.67c-7.06,22.04.6,47.13,16.04,64.38,15.44,17.25,37.63,27.34,60.31,31.97,22.68,4.64,46.06,4.25,69.19,3.42,21.5-.77,44.59-2.5,61.31-16.04,19.96-16.16,24.94-44.09,28.55-69.52" fill="none" stroke="#231f20" stroke-linecap="round" stroke-miterlimit="10" stroke-width="9"/>
      <circle id="head-2" data-name="head" cx="954.88" cy="503.69" r="58.03" fill="#fff" stroke="#231f20" stroke-linecap="round" stroke-miterlimit="10" stroke-width="9"/>
    </g>
    <g id="weight-on" opacity="1">
      <path d="m1153.13,373.23h13.36v53.36h6.64c1.87,0,3.45-.67,4.76-2,1.31-1.33,1.96-2.91,1.96-4.72v-46.64h13.28v53.36h6.72c1.81,0,3.37-.67,4.68-2,1.31-1.33,1.96-2.91,1.96-4.72v-46.64h13.36v37.2c0,6.24-2.23,11.6-6.68,16.08-4.45,4.48-9.83,6.72-16.12,6.72h-17.2v-2.08c-2.56,1.39-5.71,2.08-9.44,2.08h-17.28v-60Z" stroke-width="0"/>
      <path d="m1273.13,413.23h-26.64v6.64c0,1.81.65,3.39,1.96,4.72,1.31,1.33,2.87,2,4.68,2h6.72c4.43,0,6.64-2.24,6.64-6.72h6.64c-1.01,8.91-5.44,13.36-13.28,13.36h-13.36c-3.63,0-6.76-1.31-9.4-3.92-2.64-2.61-3.96-5.76-3.96-9.44v-20c0-3.63,1.32-6.75,3.96-9.36,2.64-2.61,5.77-3.92,9.4-3.92h13.36c3.63,0,6.75,1.31,9.36,3.92,2.61,2.61,3.92,5.73,3.92,9.36v13.36Zm-26.64-6.64h13.36v-6.72c0-1.81-.65-3.37-1.96-4.68-1.31-1.31-2.89-1.96-4.76-1.96s-3.37.65-4.68,1.96c-1.31,1.31-1.96,2.87-1.96,4.68v6.72Z" stroke-width="0"/>
      <path d="m1286.49,379.87v-6.64h13.36v6.64h-13.36Zm0,53.36v-46.64h13.36v46.64h-13.36Z" stroke-width="0"/>
      <path d="m1353.12,386.59v53.28c0,3.63-1.31,6.76-3.92,9.4-2.61,2.64-5.73,3.96-9.36,3.96h-13.36c-7.84,0-12.29-4.45-13.36-13.36h6.72c.32,4.48,2.53,6.72,6.64,6.72h6.64c1.87,0,3.45-.65,4.76-1.96,1.31-1.31,1.96-2.89,1.96-4.76v-13.28c-.53,4.43-2.77,6.64-6.72,6.64h-6.64c-3.63,0-6.76-1.31-9.4-3.92-2.64-2.61-3.96-5.76-3.96-9.44v-20c0-3.63,1.32-6.75,3.96-9.36,2.64-2.61,5.77-3.92,9.4-3.92h26.64Zm-13.28,6.64h-6.72c-1.81,0-3.37.65-4.68,1.96s-1.96,2.87-1.96,4.68v20c0,1.81.65,3.39,1.96,4.72,1.31,1.33,2.87,2,4.68,2s3.45-.67,4.76-2c1.31-1.33,1.96-2.91,1.96-4.72v-26.64Z" stroke-width="0"/>
      <path d="m1366.48,433.23v-60h13.36v20c.27-2.24.96-3.91,2.08-5,1.12-1.09,2.64-1.64,4.56-1.64h6.72c3.63,0,6.75,1.31,9.36,3.92,2.61,2.61,3.92,5.73,3.92,9.36v33.36h-13.28v-33.36c0-1.81-.65-3.37-1.96-4.68-1.31-1.31-2.89-1.96-4.76-1.96s-3.37.65-4.68,1.96-1.96,2.87-1.96,4.68v33.36h-13.36Z" stroke-width="0"/>
      <path d="m1426.56,373.23h13.28v13.36h6.72v6.64h-6.72v26.64c0,2.19.72,3.85,2.16,5,1.44,1.15,2.75,1.72,3.92,1.72h.64v6.64h-6.72c-3.63,0-6.75-1.31-9.36-3.92-2.61-2.61-3.92-5.76-3.92-9.44v-26.64h-6.72v-6.64h6.72v-13.36Z" stroke-width="0"/>
      <path d="m1166.49,469.23h13.36c3.63,0,6.75,1.32,9.36,3.96,2.61,2.64,3.92,5.77,3.92,9.4v33.28c0,3.63-1.31,6.76-3.92,9.4-2.61,2.64-5.73,3.96-9.36,3.96h-13.36c-3.63,0-6.76-1.31-9.4-3.92-2.64-2.61-3.96-5.76-3.96-9.44v-33.28c0-3.68,1.32-6.83,3.96-9.44,2.64-2.61,5.77-3.92,9.4-3.92Zm0,13.36v33.28c0,1.81.65,3.39,1.96,4.72,1.31,1.33,2.87,2,4.68,2s3.45-.67,4.76-2c1.31-1.33,1.96-2.91,1.96-4.72v-33.28c0-1.87-.65-3.45-1.96-4.76-1.31-1.31-2.89-1.96-4.76-1.96s-3.37.65-4.68,1.96-1.96,2.89-1.96,4.76Z" stroke-width="0"/>
      <path d="m1206.49,529.23v-46.64h13.36v6.64c.27-2.24.96-3.91,2.08-5,1.12-1.09,2.64-1.64,4.56-1.64h6.72c3.63,0,6.75,1.31,9.36,3.92,2.61,2.61,3.92,5.73,3.92,9.36v33.36h-13.28v-33.36c0-1.81-.65-3.37-1.96-4.68-1.31-1.31-2.89-1.96-4.76-1.96s-3.37.65-4.68,1.96c-1.31,1.31-1.96,2.87-1.96,4.68v33.36h-13.36Z" stroke-width="0"/>
      <path d="m1166.49,625.23v-26.64c-8.91-1.07-13.36-5.52-13.36-13.36v-20h13.36v20c0,1.81.65,3.37,1.96,4.68,1.31,1.31,2.87,1.96,4.68,1.96s3.45-.65,4.76-1.96c1.31-1.31,1.96-2.87,1.96-4.68v-20h13.28v20c0,7.84-4.43,12.29-13.28,13.36v26.64h-13.36Z" stroke-width="0"/>
      <path d="m1219.85,578.59h13.36c3.63,0,6.75,1.31,9.36,3.92,2.61,2.61,3.92,5.73,3.92,9.36v20c0,3.63-1.31,6.76-3.92,9.4-2.61,2.64-5.73,3.96-9.36,3.96h-13.36c-3.63,0-6.76-1.31-9.4-3.92-2.64-2.61-3.96-5.76-3.96-9.44v-20c0-3.63,1.32-6.75,3.96-9.36,2.64-2.61,5.77-3.92,9.4-3.92Zm0,13.28v20c0,1.81.65,3.39,1.96,4.72,1.31,1.33,2.87,2,4.68,2s3.45-.67,4.76-2c1.31-1.33,1.96-2.91,1.96-4.72v-20c0-1.81-.65-3.37-1.96-4.68-1.31-1.31-2.89-1.96-4.76-1.96s-3.37.65-4.68,1.96c-1.31,1.31-1.96,2.87-1.96,4.68Z" stroke-width="0"/>
      <path d="m1299.84,578.59v46.64h-13.28v-6.64c-.53,4.43-2.77,6.64-6.72,6.64h-6.64c-3.63,0-6.76-1.31-9.4-3.92-2.64-2.61-3.96-5.76-3.96-9.44v-33.28h13.36v33.28c0,1.81.65,3.39,1.96,4.72,1.31,1.33,2.87,2,4.68,2s3.45-.67,4.76-2c1.31-1.33,1.96-2.91,1.96-4.72v-33.28h13.28Z" stroke-width="0"/>
      <path d="m1326.56,625.23h-13.36v-46.64h13.36v13.28c.53-4.43,1.91-7.75,4.12-9.96s5.29-3.32,9.24-3.32h6.64v13.28h-13.36c-1.81,0-3.37.65-4.68,1.96s-1.96,2.89-1.96,4.76v26.64Z" stroke-width="0"/>
      <path d="m1186.49,674.59h-6.64c-.59-4.48-2.69-6.72-6.32-6.72-2.35,0-4.11.56-5.28,1.68-1.17,1.12-1.76,2.8-1.76,5.04,0,1.65.64,3.23,1.92,4.72l14.16,15.84c2.61,2.93,3.92,6.08,3.92,9.44v3.28c0,3.63-1.31,6.76-3.92,9.4-2.61,2.64-5.76,3.96-9.44,3.96h-6.64c-4.43,0-7.76-1.11-10-3.32-2.24-2.21-3.36-5.56-3.36-10.04h6.72v1.12c0,1.81.69,3.2,2.08,4.16s2.91,1.44,4.56,1.44c2.35,0,4.04-.57,5.08-1.72,1.04-1.15,1.56-2.81,1.56-5,0-1.71-.64-3.28-1.92-4.72l-14.16-15.84c-2.61-2.88-3.92-6.03-3.92-9.44v-3.28c0-3.63,1.31-6.76,3.92-9.4,2.61-2.64,5.76-3.96,9.44-3.96h6.64c8.37,0,12.83,4.45,13.36,13.36Z" stroke-width="0"/>
      <path d="m1199.77,721.23v-60h13.36v20c.27-2.24.96-3.91,2.08-5,1.12-1.09,2.64-1.64,4.56-1.64h6.72c3.63,0,6.75,1.31,9.36,3.92,2.61,2.61,3.92,5.73,3.92,9.36v33.36h-13.28v-33.36c0-1.81-.65-3.37-1.96-4.68-1.31-1.31-2.89-1.96-4.76-1.96s-3.37.65-4.68,1.96-1.96,2.87-1.96,4.68v33.36h-13.36Z" stroke-width="0"/>
      <path d="m1266.48,674.59h13.36c3.63,0,6.75,1.31,9.36,3.92,2.61,2.61,3.92,5.73,3.92,9.36v20c0,3.63-1.31,6.76-3.92,9.4-2.61,2.64-5.73,3.96-9.36,3.96h-13.36c-3.63,0-6.76-1.31-9.4-3.92-2.64-2.61-3.96-5.76-3.96-9.44v-20c0-3.63,1.32-6.75,3.96-9.36,2.64-2.61,5.77-3.92,9.4-3.92Zm0,13.28v20c0,1.81.65,3.39,1.96,4.72,1.31,1.33,2.87,2,4.68,2s3.45-.67,4.76-2c1.31-1.33,1.96-2.91,1.96-4.72v-20c0-1.81-.65-3.37-1.96-4.68-1.31-1.31-2.89-1.96-4.76-1.96s-3.37.65-4.68,1.96-1.96,2.87-1.96,4.68Z" stroke-width="0"/>
      <path d="m1346.48,674.59v46.64h-13.28v-6.64c-.53,4.43-2.77,6.64-6.72,6.64h-6.64c-3.63,0-6.76-1.31-9.4-3.92-2.64-2.61-3.96-5.76-3.96-9.44v-33.28h13.36v33.28c0,1.81.65,3.39,1.96,4.72,1.31,1.33,2.87,2,4.68,2s3.45-.67,4.76-2c1.31-1.33,1.96-2.91,1.96-4.72v-33.28h13.28Z" stroke-width="0"/>
      <path d="m1359.84,721.23v-60h13.36v60h-13.36Z" stroke-width="0"/>
      <path d="m1426.48,721.23h-13.28v-6.64c-.53,4.43-2.77,6.64-6.72,6.64h-6.64c-3.63,0-6.76-1.31-9.4-3.92-2.64-2.61-3.96-5.76-3.96-9.44v-20c0-3.63,1.32-6.75,3.96-9.36,2.64-2.61,5.77-3.92,9.4-3.92h13.36v-13.36h13.28v60Zm-13.28-40h-6.72c-1.81,0-3.37.65-4.68,1.96s-1.96,2.87-1.96,4.68v20c0,1.81.65,3.39,1.96,4.72,1.31,1.33,2.87,2,4.68,2s3.45-.67,4.76-2c1.31-1.33,1.96-2.91,1.96-4.72v-26.64Z" stroke-width="0"/>
      <path d="m1479.84,701.23h-26.64v6.64c0,1.81.65,3.39,1.96,4.72,1.31,1.33,2.87,2,4.68,2h6.72c4.43,0,6.64-2.24,6.64-6.72h6.64c-1.01,8.91-5.44,13.36-13.28,13.36h-13.36c-3.63,0-6.76-1.31-9.4-3.92-2.64-2.61-3.96-5.76-3.96-9.44v-20c0-3.63,1.32-6.75,3.96-9.36,2.64-2.61,5.77-3.92,9.4-3.92h13.36c3.63,0,6.75,1.31,9.36,3.92,2.61,2.61,3.92,5.73,3.92,9.36v13.36Zm-26.64-6.64h13.36v-6.72c0-1.81-.65-3.37-1.96-4.68-1.31-1.31-2.89-1.96-4.76-1.96s-3.37.65-4.68,1.96-1.96,2.87-1.96,4.68v6.72Z" stroke-width="0"/>
      <path d="m1506.56,721.23h-13.36v-46.64h13.36v13.28c.53-4.43,1.91-7.75,4.12-9.96s5.29-3.32,9.24-3.32h6.64v13.28h-13.36c-1.81,0-3.37.65-4.68,1.96-1.31,1.31-1.96,2.89-1.96,4.76v26.64Z" stroke-width="0"/>
      <path d="m1566.56,687.87h-6.64c-.59-4.43-2.69-6.64-6.32-6.64-2.35,0-4.11.47-5.28,1.4-1.17.93-1.76,2.31-1.76,4.12,0,1.92,3.23,4.61,9.68,8.08,5.28,2.83,8.32,5.17,9.12,7.04.8,1.87,1.2,3.87,1.2,6,0,3.68-1.31,6.83-3.92,9.44-2.61,2.61-5.76,3.92-9.44,3.92h-6.64c-8.91,0-13.36-4.45-13.36-13.36h6.72c.53,4.48,2.61,6.72,6.24,6.72,2.4,0,4.19-.47,5.36-1.4,1.17-.93,1.76-2.33,1.76-4.2s-3.23-4.53-9.68-8c-5.28-2.83-8.33-5.17-9.16-7.04-.83-1.87-1.24-3.87-1.24-6,0-3.68,1.32-6.83,3.96-9.44,2.64-2.61,5.77-3.92,9.4-3.92h6.64c8.37,0,12.83,4.43,13.36,13.28Z" stroke-width="0"/>
      <path d="m1593.2,701.23v-6.64c0-5.55,2.88-10.05,8.64-13.52l1.12-.64c2.4-1.44,3.6-3.39,3.6-5.84,0-1.81-.65-3.39-1.96-4.72-1.31-1.33-2.89-2-4.76-2h-6.64c-4.11,0-6.32,2.24-6.64,6.72h-6.72c1.07-8.91,5.52-13.36,13.36-13.36h13.36c3.63,0,6.75,1.31,9.36,3.92,2.61,2.61,3.92,5.76,3.92,9.44,0,5.76-2.53,9.76-7.6,12l-1.04.48c-2.4,1.07-3.77,2.11-4.12,3.12-.35,1.01-.52,2.48-.52,4.4v6.64h-13.36Zm0,20v-13.36h13.36v13.36h-13.36Z" stroke-width="0"/>
    </g>
    <g id="want-to-feel">
      <g id="want" opacity="0">
        <path d="m716.82,340.01h11.69v46.69h5.81c1.63,0,3.02-.58,4.17-1.75,1.14-1.17,1.71-2.54,1.71-4.13v-40.81h11.62v46.69h5.88c1.59,0,2.95-.58,4.1-1.75,1.14-1.17,1.71-2.54,1.71-4.13v-40.81h11.69v32.55c0,5.46-1.95,10.15-5.84,14.07-3.9,3.92-8.6,5.88-14.1,5.88h-15.05v-1.82c-2.24,1.21-4.99,1.82-8.26,1.82h-15.12v-52.5Z" stroke-width="0"/>
        <path d="m810.2,369.2v-5.88c0-1.59-.57-2.95-1.71-4.09-1.14-1.14-2.53-1.71-4.17-1.71h-5.81c-3.45,0-5.39,1.94-5.81,5.81h-5.88c.93-7.75,4.83-11.62,11.69-11.62h11.69c3.17,0,5.9,1.14,8.19,3.43,2.29,2.29,3.43,5.02,3.43,8.19v29.19h-11.62v-5.81c-.47,3.87-2.43,5.81-5.88,5.81h-5.81c-3.17,0-5.92-1.14-8.23-3.43-2.31-2.29-3.46-5.04-3.46-8.26s1.15-5.9,3.46-8.19c2.31-2.29,5.05-3.43,8.23-3.43h11.69Zm0,5.81h-5.88c-1.59,0-2.95.57-4.1,1.71-1.14,1.14-1.71,2.51-1.71,4.09s.57,2.96,1.71,4.13c1.14,1.17,2.51,1.75,4.1,1.75s3.02-.58,4.17-1.75c1.14-1.17,1.71-2.54,1.71-4.13v-5.81Z" stroke-width="0"/>
        <path d="m833.51,392.51v-40.81h11.69v5.81c.23-1.96.84-3.42,1.82-4.38.98-.96,2.31-1.43,3.99-1.43h5.88c3.17,0,5.9,1.14,8.19,3.43,2.29,2.29,3.43,5.02,3.43,8.19v29.19h-11.62v-29.19c0-1.59-.57-2.95-1.71-4.09-1.14-1.14-2.53-1.71-4.17-1.71s-2.95.57-4.1,1.71c-1.14,1.14-1.71,2.51-1.71,4.09v29.19h-11.69Z" stroke-width="0"/>
        <path d="m886.08,340.01h11.62v11.69h5.88v5.81h-5.88v23.31c0,1.91.63,3.37,1.89,4.38,1.26,1,2.4,1.51,3.43,1.51h.56v5.81h-5.88c-3.17,0-5.9-1.14-8.19-3.43-2.29-2.29-3.43-5.04-3.43-8.26v-23.31h-5.88v-5.81h5.88v-11.69Z" stroke-width="0"/>
        <path d="m938.58,340.01h11.62v11.69h5.88v5.81h-5.88v23.31c0,1.91.63,3.37,1.89,4.38,1.26,1,2.4,1.51,3.43,1.51h.56v5.81h-5.88c-3.17,0-5.9-1.14-8.19-3.43-2.29-2.29-3.43-5.04-3.43-8.26v-23.31h-5.88v-5.81h5.88v-11.69Z" stroke-width="0"/>
        <path d="m979.39,351.7h11.69c3.17,0,5.9,1.14,8.19,3.43,2.29,2.29,3.43,5.02,3.43,8.19v17.5c0,3.17-1.14,5.92-3.43,8.23-2.29,2.31-5.02,3.46-8.19,3.46h-11.69c-3.17,0-5.92-1.14-8.22-3.43-2.31-2.29-3.47-5.04-3.47-8.26v-17.5c0-3.17,1.16-5.9,3.47-8.19,2.31-2.29,5.05-3.43,8.22-3.43Zm0,11.62v17.5c0,1.59.57,2.96,1.71,4.13,1.14,1.17,2.51,1.75,4.09,1.75s3.02-.58,4.17-1.75c1.14-1.17,1.72-2.54,1.72-4.13v-17.5c0-1.59-.57-2.95-1.72-4.09-1.14-1.14-2.53-1.71-4.17-1.71s-2.95.57-4.09,1.71c-1.14,1.14-1.71,2.51-1.71,4.09Z" stroke-width="0"/>
        <path d="m1037.77,392.51v-35h-5.88v-5.81h5.88v-.56c0-3.03,1.1-5.65,3.29-7.84,2.19-2.19,4.81-3.29,7.84-3.29h12.18v5.81h-6.37c-1.45,0-2.7.53-3.75,1.58s-1.58,2.3-1.58,3.75v.56h5.88v5.81h-5.88v35h-11.62Z" stroke-width="0"/>
        <path d="m1101.89,375.01h-23.31v5.81c0,1.59.57,2.96,1.71,4.13,1.14,1.17,2.51,1.75,4.09,1.75h5.88c3.87,0,5.81-1.96,5.81-5.88h5.81c-.89,7.79-4.76,11.69-11.62,11.69h-11.69c-3.17,0-5.92-1.14-8.22-3.43-2.31-2.29-3.47-5.04-3.47-8.26v-17.5c0-3.17,1.16-5.9,3.47-8.19,2.31-2.29,5.05-3.43,8.22-3.43h11.69c3.17,0,5.9,1.14,8.19,3.43,2.29,2.29,3.43,5.02,3.43,8.19v11.69Zm-23.31-5.81h11.69v-5.88c0-1.59-.57-2.95-1.72-4.09-1.14-1.14-2.53-1.71-4.17-1.71s-2.95.57-4.09,1.71c-1.14,1.14-1.71,2.51-1.71,4.09v5.88Z" stroke-width="0"/>
        <path d="m1148.58,375.01h-23.31v5.81c0,1.59.57,2.96,1.71,4.13,1.14,1.17,2.51,1.75,4.09,1.75h5.88c3.87,0,5.81-1.96,5.81-5.88h5.81c-.89,7.79-4.76,11.69-11.62,11.69h-11.69c-3.17,0-5.92-1.14-8.22-3.43-2.31-2.29-3.47-5.04-3.47-8.26v-17.5c0-3.17,1.16-5.9,3.47-8.19,2.31-2.29,5.05-3.43,8.22-3.43h11.69c3.17,0,5.9,1.14,8.19,3.43,2.29,2.29,3.43,5.02,3.43,8.19v11.69Zm-23.31-5.81h11.69v-5.88c0-1.59-.57-2.95-1.72-4.09-1.14-1.14-2.53-1.71-4.17-1.71s-2.95.57-4.09,1.71c-1.14,1.14-1.71,2.51-1.71,4.09v5.88Z" stroke-width="0"/>
        <path d="m1160.27,392.51v-52.5h11.69v52.5h-11.69Z" stroke-width="0"/>
        <path d="m1183.58,392.51v-11.69h11.69v11.69h-11.69Z" stroke-width="0"/>
        <path d="m1206.89,392.51v-11.69h11.69v11.69h-11.69Z" stroke-width="0"/>
        <path d="m1230.2,392.51v-11.69h11.69v11.69h-11.69Z" stroke-width="0"/>
      </g>
      <g id="weightless" opacity="0">
        <path d="m605.37,564.59h15.03v60.03h7.47c2.1,0,3.88-.75,5.35-2.25,1.47-1.5,2.2-3.27,2.2-5.31v-52.47h14.94v60.03h7.56c2.04,0,3.79-.75,5.27-2.25,1.47-1.5,2.21-3.27,2.21-5.31v-52.47h15.03v41.85c0,7.02-2.51,13.05-7.51,18.09-5.01,5.04-11.06,7.56-18.14,7.56h-19.35v-2.34c-2.88,1.56-6.42,2.34-10.62,2.34h-19.44v-67.5Z" stroke-width="0"/>
        <path d="m758.37,609.59h-29.97v7.47c0,2.04.73,3.81,2.21,5.31,1.47,1.5,3.22,2.25,5.27,2.25h7.56c4.98,0,7.47-2.52,7.47-7.56h7.47c-1.14,10.02-6.12,15.03-14.94,15.03h-15.03c-4.08,0-7.6-1.47-10.58-4.41-2.97-2.94-4.45-6.48-4.45-10.62v-22.5c0-4.08,1.48-7.59,4.45-10.53,2.97-2.94,6.49-4.41,10.58-4.41h15.03c4.08,0,7.59,1.47,10.53,4.41,2.94,2.94,4.41,6.45,4.41,10.53v15.03Zm-29.97-7.47h15.03v-7.56c0-2.04-.74-3.79-2.2-5.26-1.47-1.47-3.26-2.21-5.35-2.21s-3.8.74-5.27,2.21c-1.47,1.47-2.21,3.23-2.21,5.26v7.56Z" stroke-width="0"/>
        <path d="m791.4,572.06v-7.47h15.03v7.47h-15.03Zm0,60.03v-52.47h15.03v52.47h-15.03Z" stroke-width="0"/>
        <path d="m884.37,579.62v59.94c0,4.08-1.47,7.61-4.41,10.58-2.94,2.97-6.45,4.46-10.53,4.46h-15.03c-8.82,0-13.83-5.01-15.03-15.03h7.56c.36,5.04,2.85,7.56,7.47,7.56h7.47c2.1,0,3.88-.74,5.35-2.21,1.47-1.47,2.2-3.26,2.2-5.36v-14.94c-.6,4.98-3.12,7.47-7.56,7.47h-7.47c-4.08,0-7.6-1.47-10.58-4.41-2.97-2.94-4.45-6.48-4.45-10.62v-22.5c0-4.08,1.48-7.59,4.45-10.53,2.97-2.94,6.49-4.41,10.58-4.41h29.97Zm-14.94,7.47h-7.56c-2.04,0-3.8.74-5.27,2.21-1.47,1.47-2.21,3.23-2.21,5.26v22.5c0,2.04.73,3.81,2.21,5.31,1.47,1.5,3.22,2.25,5.27,2.25s3.88-.75,5.35-2.25c1.47-1.5,2.2-3.27,2.2-5.31v-29.97Z" stroke-width="0"/>
        <path d="m917.4,632.09v-67.5h15.03v22.5c.3-2.52,1.08-4.39,2.34-5.62,1.26-1.23,2.97-1.84,5.13-1.84h7.56c4.08,0,7.59,1.47,10.53,4.41,2.94,2.94,4.41,6.45,4.41,10.53v37.53h-14.94v-37.53c0-2.04-.73-3.79-2.21-5.26-1.47-1.47-3.26-2.21-5.36-2.21s-3.79.74-5.26,2.21c-1.47,1.47-2.21,3.23-2.21,5.26v37.53h-15.03Z" stroke-width="0"/>
        <path d="m1002.99,564.59h14.94v15.03h7.56v7.47h-7.56v29.97c0,2.46.81,4.34,2.43,5.62,1.62,1.29,3.09,1.94,4.41,1.94h.72v7.47h-7.56c-4.08,0-7.59-1.47-10.53-4.41-2.94-2.94-4.41-6.48-4.41-10.62v-29.97h-7.56v-7.47h7.56v-15.03Z" stroke-width="0"/>
        <path d="m1058.43,632.09v-67.5h15.03v67.5h-15.03Z" stroke-width="0"/>
        <path d="m1151.4,609.59h-29.97v7.47c0,2.04.73,3.81,2.21,5.31,1.47,1.5,3.22,2.25,5.26,2.25h7.56c4.98,0,7.47-2.52,7.47-7.56h7.47c-1.14,10.02-6.12,15.03-14.94,15.03h-15.03c-4.08,0-7.61-1.47-10.58-4.41-2.97-2.94-4.46-6.48-4.46-10.62v-22.5c0-4.08,1.49-7.59,4.46-10.53,2.97-2.94,6.49-4.41,10.58-4.41h15.03c4.08,0,7.59,1.47,10.53,4.41,2.94,2.94,4.41,6.45,4.41,10.53v15.03Zm-29.97-7.47h15.03v-7.56c0-2.04-.74-3.79-2.21-5.26-1.47-1.47-3.26-2.21-5.36-2.21s-3.79.74-5.26,2.21-2.21,3.23-2.21,5.26v7.56Z" stroke-width="0"/>
        <path d="m1221.96,594.56h-7.47c-.66-4.98-3.03-7.47-7.11-7.47-2.64,0-4.62.53-5.94,1.58-1.32,1.05-1.98,2.6-1.98,4.63,0,2.16,3.63,5.19,10.89,9.09,5.94,3.18,9.36,5.82,10.26,7.92.9,2.1,1.35,4.35,1.35,6.75,0,4.14-1.47,7.68-4.41,10.62-2.94,2.94-6.48,4.41-10.62,4.41h-7.47c-10.02,0-15.03-5.01-15.03-15.03h7.56c.6,5.04,2.94,7.56,7.02,7.56,2.7,0,4.71-.52,6.03-1.58,1.32-1.05,1.98-2.62,1.98-4.72s-3.63-5.1-10.89-9c-5.94-3.18-9.38-5.82-10.3-7.92-.93-2.1-1.4-4.35-1.4-6.75,0-4.14,1.49-7.68,4.46-10.62,2.97-2.94,6.49-4.41,10.58-4.41h7.47c9.42,0,14.43,4.98,15.03,14.94Z" stroke-width="0"/>
        <path d="m1292.43,594.56h-7.47c-.66-4.98-3.03-7.47-7.11-7.47-2.64,0-4.62.53-5.94,1.58-1.32,1.05-1.98,2.6-1.98,4.63,0,2.16,3.63,5.19,10.89,9.09,5.94,3.18,9.36,5.82,10.26,7.92.9,2.1,1.35,4.35,1.35,6.75,0,4.14-1.47,7.68-4.41,10.62-2.94,2.94-6.48,4.41-10.62,4.41h-7.47c-10.02,0-15.03-5.01-15.03-15.03h7.56c.6,5.04,2.94,7.56,7.02,7.56,2.7,0,4.71-.52,6.03-1.58,1.32-1.05,1.98-2.62,1.98-4.72s-3.63-5.1-10.89-9c-5.94-3.18-9.38-5.82-10.3-7.92-.93-2.1-1.4-4.35-1.4-6.75,0-4.14,1.49-7.68,4.46-10.62,2.97-2.94,6.49-4.41,10.58-4.41h7.47c9.42,0,14.43,4.98,15.03,14.94Z" stroke-width="0"/>
        <path d="m1340.4,609.59v-7.47c0-6.24,3.24-11.31,9.72-15.21l1.26-.72c2.7-1.62,4.05-3.81,4.05-6.57,0-2.04-.74-3.81-2.21-5.31-1.47-1.5-3.26-2.25-5.36-2.25h-7.47c-4.62,0-7.11,2.52-7.47,7.56h-7.56c1.2-10.02,6.21-15.03,15.03-15.03h15.03c4.08,0,7.59,1.47,10.53,4.41,2.94,2.94,4.41,6.48,4.41,10.62,0,6.48-2.85,10.98-8.55,13.5l-1.17.54c-2.7,1.2-4.25,2.37-4.63,3.51-.39,1.14-.58,2.79-.58,4.95v7.47h-15.03Zm0,22.5v-15.03h15.03v15.03h-15.03Z" stroke-width="0"/>
      </g>
    </g>
  </g>
</svg>