<?xml version="1.0" encoding="UTF-8"?>
<svg id="scene3SVG" xmlns="http://www.w3.org/2000/svg" viewBox="0 0 1920 1080">
  <g id="scene3Wrapper">
    <rect id="scene3Bg" x="1.14" y=".38" width="1920" height="1080" stroke="#000" stroke-miterlimit="10" stroke-width=".75"/>
    <polygon id="star-15" points="667.17 529.78 651.3 521.11 634.2 527.72 638.65 511.73 626.24 499.44 644.86 498.23 654.28 484.02 661.34 499.26 679.58 502.77 665.32 513.4 667.17 529.78" fill="#fff" opacity="0" stroke="#fff" stroke-miterlimit="10"/>
    <polygon id="star-14" points="775.66 768.25 791.84 797.16 828.02 801.79 801.84 824.3 808.02 856.07 775.66 841.07 743.3 856.07 749.48 824.3 723.3 801.79 759.48 797.16 775.66 768.25" fill="#fff" opacity="0" stroke="#fff" stroke-miterlimit="10"/>
    <polygon id="star-13" points="1148.81 227.92 1109.66 211.2 1071.85 230.16 1077.78 192.16 1045.64 166.31 1088.46 159.55 1106.42 124.61 1126.95 158.43 1170.18 162.69 1140.05 190.35 1148.81 227.92" fill="#fff" opacity="0" stroke="#fff" stroke-miterlimit="10"/>
    <polygon id="star-12" points="1481.16 117.13 1455.95 106.44 1431.66 118.69 1435.4 94.24 1414.68 77.67 1442.21 73.25 1453.69 50.75 1466.96 72.47 1494.78 75.14 1475.45 92.98 1481.16 117.13" fill="#fff" opacity="0" stroke="#fff" stroke-miterlimit="10"/>
    <polygon id="star-11" points="1316.39 688.69 1294.46 676.44 1270.58 685.43 1277.01 663.26 1259.93 646.01 1285.84 644.55 1299.17 624.9 1308.75 646.18 1334.06 651.28 1314.07 665.89 1316.39 688.69" fill="#fff" opacity="0" stroke="#fff" stroke-miterlimit="10"/>
    <polygon id="star-10" points="1575.35 880 1549.51 872.94 1528.26 887.7 1527.89 863.85 1505.4 850.59 1531.02 842.91 1538.37 819.95 1554.56 839.06 1581.6 838.13 1565.99 857.62 1575.35 880" fill="#fff" opacity="0" stroke="#fff" stroke-miterlimit="10"/>
    <polygon id="star-9" points="1860.28 214.55 1833.18 250.33 1851.25 290.29 1804.28 278.63 1766.76 306.13 1764.83 263.14 1723.57 240.17 1769.34 225.27 1781.37 183.57 1811.59 217.35 1860.28 214.55" fill="#fff" opacity="0" stroke="#fff" stroke-miterlimit="10"/>
    <polygon id="star-8" points="187.62 120.51 165.69 108.27 141.81 117.26 148.24 95.08 131.17 77.84 157.08 76.37 170.4 56.73 179.98 78 205.29 83.1 185.31 97.71 187.62 120.51" fill="#fff" opacity="0" stroke="#fff" stroke-miterlimit="10"/>
    <polygon id="star-7" points="172.28 830.1 147.27 819.49 123.19 831.64 126.9 807.4 106.35 790.96 133.65 786.58 145.03 764.27 158.19 785.8 185.78 788.46 166.61 806.15 172.28 830.1" fill="#fff" opacity="0" stroke="#fff" stroke-miterlimit="10"/>
    <g id="red" opacity="0">
      <ellipse cx="776.14" cy="189.29" rx="149.83" ry="132.11" fill="#ba2222" stroke-width="0"/>
      <ellipse cx="720.24" cy="175.48" rx="11.18" ry="9.86" fill="#f91515" stroke-width="0"/>
      <ellipse cx="845.47" cy="155.77" rx="24.6" ry="21.69" fill="#f91515" stroke-width="0"/>
      <ellipse cx="820.87" cy="268.16" rx="13.42" ry="11.83" fill="#f91515" stroke-width="0"/>
      <ellipse cx="789.56" cy="216.89" rx="13.42" ry="11.83" fill="#f91515" stroke-width="0"/>
      <ellipse cx="762.73" cy="106.47" rx="13.42" ry="11.83" fill="#f91515" stroke-width="0"/>
      <ellipse cx="720.55" cy="261.38" rx="24.6" ry="21.69" fill="#f91515" stroke-width="0"/>
    </g>
    <g id="blue" opacity="0">
      <ellipse cx="1603.53" cy="589.62" rx="149.83" ry="132.11" fill="#2f7fc1" stroke-width="0"/>
      <ellipse cx="1547.62" cy="575.82" rx="11.18" ry="9.86" fill="#16ddf7" stroke-width="0"/>
      <ellipse cx="1672.85" cy="556.1" rx="24.6" ry="21.69" fill="#16ddf7" stroke-width="0"/>
      <ellipse cx="1648.25" cy="668.5" rx="13.42" ry="11.83" fill="#16ddf7" stroke-width="0"/>
      <ellipse cx="1616.95" cy="617.23" rx="13.42" ry="11.83" fill="#16ddf7" stroke-width="0"/>
      <ellipse cx="1590.11" cy="506.81" rx="13.42" ry="11.83" fill="#16ddf7" stroke-width="0"/>
      <ellipse cx="1547.93" cy="661.72" rx="24.6" ry="21.69" fill="#16ddf7" stroke-width="0"/>
    </g>
    <g id="grab-moon" opacity="0">
      <path d="m345.29,350.56h15v15c0,3.36-1.06,5.87-3.18,7.53-2.12,1.66-4.38,2.49-6.78,2.49h-10.02c-2.72,0-5.07-.98-7.05-2.94-1.98-1.96-2.97-4.32-2.97-7.08v-24.96c0-2.72.97-5.07,2.91-7.05,1.94-1.98,4.31-2.97,7.11-2.97h10.02c6.28,0,9.6,3.34,9.96,10.02h-4.98c-.4-3.36-2.06-5.04-4.98-5.04h-5.04c-1.36,0-2.53.49-3.51,1.47s-1.47,2.17-1.47,3.57v24.96c0,1.4.49,2.59,1.47,3.57.98.98,2.15,1.47,3.51,1.47,3.2-.16,4.88-1.84,5.04-5.04v-9.96h-5.04v-5.04Z" fill="#fff" stroke-width="0"/>
      <path d="m380.33,375.58h-10.02v-34.98h10.02v9.96c.4-3.32,1.43-5.81,3.09-7.47s3.97-2.49,6.93-2.49h4.98v9.96h-10.02c-1.36,0-2.53.49-3.51,1.47s-1.47,2.17-1.47,3.57v19.98Z" fill="#fff" stroke-width="0"/>
      <path d="m420.34,355.6v-5.04c0-1.36-.49-2.53-1.47-3.51-.98-.98-2.17-1.47-3.57-1.47h-4.98c-2.96,0-4.62,1.66-4.98,4.98h-5.04c.8-6.64,4.14-9.96,10.02-9.96h10.02c2.72,0,5.06.98,7.02,2.94,1.96,1.96,2.94,4.3,2.94,7.02v25.02h-9.96v-4.98c-.4,3.32-2.08,4.98-5.04,4.98h-4.98c-2.72,0-5.07-.98-7.05-2.94-1.98-1.96-2.97-4.32-2.97-7.08s.99-5.06,2.97-7.02c1.98-1.96,4.33-2.94,7.05-2.94h10.02Zm0,4.98h-5.04c-1.36,0-2.53.49-3.51,1.47s-1.47,2.15-1.47,3.51.49,2.54,1.47,3.54c.98,1,2.15,1.5,3.51,1.5s2.59-.5,3.57-1.5c.98-1,1.47-2.18,1.47-3.54v-4.98Z" fill="#fff" stroke-width="0"/>
      <path d="m440.33,375.58v-45h10.02v15c.2-1.68.72-2.93,1.56-3.75.84-.82,1.98-1.23,3.42-1.23h5.04c2.72,0,5.06.98,7.02,2.94,1.96,1.96,2.94,4.3,2.94,7.02v15c0,2.72-.98,5.07-2.94,7.05-1.96,1.98-4.3,2.97-7.02,2.97h-20.04Zm10.02-4.98h4.98c1.4,0,2.59-.5,3.57-1.5.98-1,1.47-2.18,1.47-3.54v-15c0-1.36-.49-2.53-1.47-3.51-.98-.98-2.17-1.47-3.57-1.47s-2.53.49-3.51,1.47-1.47,2.15-1.47,3.51v20.04Z" fill="#fff" stroke-width="0"/>
      <path d="m500.38,330.58h9.96v10.02h5.04v4.98h-5.04v19.98c0,1.64.54,2.89,1.62,3.75s2.06,1.29,2.94,1.29h.48v4.98h-5.04c-2.72,0-5.06-.98-7.02-2.94-1.96-1.96-2.94-4.32-2.94-7.08v-19.98h-5.04v-4.98h5.04v-10.02Z" fill="#fff" stroke-width="0"/>
      <path d="m525.34,375.58v-45h10.02v15c.2-1.68.72-2.93,1.56-3.75.84-.82,1.98-1.23,3.42-1.23h5.04c2.72,0,5.06.98,7.02,2.94,1.96,1.96,2.94,4.3,2.94,7.02v25.02h-9.96v-25.02c0-1.36-.49-2.53-1.47-3.51-.98-.98-2.17-1.47-3.57-1.47s-2.53.49-3.51,1.47-1.47,2.15-1.47,3.51v25.02h-10.02Z" fill="#fff" stroke-width="0"/>
      <path d="m595.36,360.58h-19.98v4.98c0,1.36.49,2.54,1.47,3.54.98,1,2.15,1.5,3.51,1.5h5.04c3.32,0,4.98-1.68,4.98-5.04h4.98c-.76,6.68-4.08,10.02-9.96,10.02h-10.02c-2.72,0-5.07-.98-7.05-2.94-1.98-1.96-2.97-4.32-2.97-7.08v-15c0-2.72.99-5.06,2.97-7.02,1.98-1.96,4.33-2.94,7.05-2.94h10.02c2.72,0,5.06.98,7.02,2.94,1.96,1.96,2.94,4.3,2.94,7.02v10.02Zm-19.98-4.98h10.02v-5.04c0-1.36-.49-2.53-1.47-3.51-.98-.98-2.17-1.47-3.57-1.47s-2.53.49-3.51,1.47-1.47,2.15-1.47,3.51v5.04Z" fill="#fff" stroke-width="0"/>
      <path d="m650.38,375.58h-9.96v-25.02c0-1.36-.49-2.53-1.47-3.51-.98-.98-2.17-1.47-3.57-1.47s-2.53.49-3.51,1.47-1.47,2.15-1.47,3.51v25.02h-10.02v-34.98h10.02v4.98c.2-1.68.72-2.93,1.56-3.75.84-.82,1.98-1.23,3.42-1.23h5.04c3.4,0,5.9,1.18,7.5,3.54.8-1.2,1.82-2.09,3.06-2.67,1.24-.58,2.72-.87,4.44-.87h4.98c2.72,0,5.07.98,7.05,2.94,1.98,1.96,2.97,4.3,2.97,7.02v25.02h-10.02v-25.02c0-1.32-.49-2.48-1.47-3.48-.98-1-2.15-1.5-3.51-1.5s-2.54.49-3.54,1.47c-1,.98-1.5,2.15-1.5,3.51v25.02Z" fill="#fff" stroke-width="0"/>
      <path d="m690.4,340.6h10.02c2.72,0,5.06.98,7.02,2.94,1.96,1.96,2.94,4.3,2.94,7.02v15c0,2.72-.98,5.07-2.94,7.05-1.96,1.98-4.3,2.97-7.02,2.97h-10.02c-2.72,0-5.07-.98-7.05-2.94-1.98-1.96-2.97-4.32-2.97-7.08v-15c0-2.72.99-5.06,2.97-7.02,1.98-1.96,4.33-2.94,7.05-2.94Zm0,9.96v15c0,1.36.49,2.54,1.47,3.54.98,1,2.15,1.5,3.51,1.5s2.59-.5,3.57-1.5c.98-1,1.47-2.18,1.47-3.54v-15c0-1.36-.49-2.53-1.47-3.51-.98-.98-2.17-1.47-3.57-1.47s-2.53.49-3.51,1.47-1.47,2.15-1.47,3.51Z" fill="#fff" stroke-width="0"/>
      <path d="m730.42,340.6h10.02c2.72,0,5.06.98,7.02,2.94,1.96,1.96,2.94,4.3,2.94,7.02v15c0,2.72-.98,5.07-2.94,7.05-1.96,1.98-4.3,2.97-7.02,2.97h-10.02c-2.72,0-5.07-.98-7.05-2.94-1.98-1.96-2.97-4.32-2.97-7.08v-15c0-2.72.99-5.06,2.97-7.02,1.98-1.96,4.33-2.94,7.05-2.94Zm0,9.96v15c0,1.36.49,2.54,1.47,3.54.98,1,2.15,1.5,3.51,1.5s2.59-.5,3.57-1.5c.98-1,1.47-2.18,1.47-3.54v-15c0-1.36-.49-2.53-1.47-3.51-.98-.98-2.17-1.47-3.57-1.47s-2.53.49-3.51,1.47-1.47,2.15-1.47,3.51Z" fill="#fff" stroke-width="0"/>
      <path d="m760.42,375.58v-34.98h10.02v4.98c.2-1.68.72-2.93,1.56-3.75.84-.82,1.98-1.23,3.42-1.23h5.04c2.72,0,5.06.98,7.02,2.94,1.96,1.96,2.94,4.3,2.94,7.02v25.02h-9.96v-25.02c0-1.36-.49-2.53-1.47-3.51-.98-.98-2.17-1.47-3.57-1.47s-2.53.49-3.51,1.47-1.47,2.15-1.47,3.51v25.02h-10.02Z" fill="#fff" stroke-width="0"/>
      <path d="m805.48,360.58v-30h9.96v30h-9.96Zm0,15v-10.02h9.96v10.02h-9.96Z" fill="#fff" stroke-width="0"/>
    </g>
    <g id="scene3-rocket" opacity="0">
    <rect id="rocket-collider" opacity="0.01" x="897.76" y="412.89" width="148" height="267" fill="#000" stroke-width="0"/>
    <g id="rocket-3">
      <g>
        <path d="m961.27,414.36l-36.58,55.86c-1.84,2.81.18,6.54,3.53,6.54h73.16c3.36,0,5.37-3.73,3.53-6.54l-36.58-55.86c-1.67-2.55-5.4-2.55-7.07,0Z" fill="#e53e3e" stroke-width="0"/>
        <path d="m1001.87,550.46c18.41,8.31,37.12,17.22,50.56,31.08,2.65,2.73,5.1,5.69,6.53,9.05,1.3,3.05,1.72,6.33,2.14,9.57,1.05,8.29,2.11,16.61,2.02,24.96-9.18-5.74-18.36-11.48-27.53-17.22-9.89-6.19-20.49-12.6-32.6-13.22" fill="#e53e3e" stroke-width="0"/>
        <path d="m928.01,550.1c-18.41,8.31-37.12,17.22-50.56,31.08-2.65,2.73-5.1,5.69-6.53,9.05-1.3,3.05-1.72,6.33-2.14,9.57-1.05,8.29-2.11,16.61-2.02,24.96,9.18-5.74,18.36-11.48,27.53-17.22,9.89-6.19,20.49-12.6,32.6-13.22" fill="#e53e3e" stroke-width="0"/>
        <rect x="945.45" y="636.09" width="38.25" height="11.24" rx="2.39" ry="2.39" fill="#e6e7e8" stroke-width="0"/>
        <path d="m923.94,472.38h81.68v150.33c0,9.09-7.38,16.46-16.46,16.46h-48.76c-9.09,0-16.46-7.38-16.46-16.46v-150.33h0Z" fill="#9eadb7" stroke-width="0"/>
      <g>
        <ellipse cx="964.58" cy="516.64" rx="25.6" ry="22.57" fill="#231f20" stroke-width="0"/>
        <ellipse cx="965.13" cy="516.79" rx="18.33" ry="16.17" fill="#2331e2" stroke-width="0"/>
      </g>
      </g>
        <g>
          <path d="m983.29,651.21c3.59,2.22,8.87,2.55,12.21,5.06,9.19,6.92,19.28,12.88,28.44,19.84,9.16,6.96,17.52,15.14,21.98,25.05-18.46-4.79-36.56-10.65-54.15-17.52,2.59,5.04,1.09,10.95-1.1,16.13-2.19,5.18-5.08,10.32-5.19,15.85-6.3-10.31-12.01-20.9-17.08-31.72-5.02,6.84-10.04,13.68-15.06,20.52-2.35-7.13-3.13-14.66-2.3-22.05-12.8,4.01-26.16,6.61-39.67,7.74-.43-.49-.85-.99-1.28-1.48,12.73-12.66,25.1-25.6,37.08-38.81,4.12-.88,6.97-1.47,10.41-3.66,9.55,1.37,17.83.15,25.75,5.05Z" fill="#d22" stroke="#d22" stroke-miterlimit="10" stroke-width="2"/>
          <path d="m978.7,655.26c2.59,1.6,6.41,1.84,8.82,3.65,6.65,5,13.94,9.31,20.56,14.34,6.62,5.03,12.66,10.94,15.88,18.1-13.34-3.46-26.43-7.7-39.14-12.67,1.87,3.64.79,7.91-.8,11.66-1.58,3.75-3.67,7.46-3.75,11.46-4.56-7.45-8.68-15.1-12.35-22.93-3.63,4.94-7.26,9.89-10.89,14.83-1.7-5.16-2.26-10.6-1.66-15.94-9.25,2.9-18.91,4.78-28.68,5.6-.31-.36-.62-.72-.92-1.07,9.2-9.15,18.14-18.5,26.8-28.06,2.97-.64,5.04-1.06,7.52-2.64,6.9.99,12.89.11,18.61,3.65Z" fill="#db9523" stroke="#db6d23" stroke-miterlimit="10" stroke-width="2"/>
        </g>
      </g>
    </g>
    <g id="yellow" opacity="0">
      <ellipse cx="319.96" cy="538.27" rx="149.83" ry="132.11" fill="#d1c23b" stroke-width="0"/>
      <ellipse cx="308.22" cy="549.43" rx="18.49" ry="264" transform="translate(-320.35 507.3) rotate(-56.87)" fill="#f4b519" stroke-width="0"/>
    </g>
    <polygon id="star-6" points="1848.89 885.27 1826.96 873.03 1803.08 882.02 1809.51 859.84 1792.43 842.59 1818.34 841.13 1831.67 821.48 1841.25 842.76 1866.56 847.86 1846.57 862.47 1848.89 885.27" fill="#8e8e8e" opacity="0" stroke-width="0"/>
    <polygon id="star-5" points="1353.14 384.7 1331.2 372.46 1307.33 381.45 1313.76 359.27 1296.68 342.03 1322.59 340.56 1335.91 320.92 1345.5 342.19 1370.81 347.29 1350.82 361.9 1353.14 384.7" fill="#8e8e8e" opacity="0" stroke-width="0"/>
    <polygon id="star-4" points="1188.35 917.71 1166.41 905.47 1142.54 914.46 1148.97 892.28 1131.89 875.03 1157.8 873.57 1171.12 853.92 1180.71 875.2 1206.02 880.3 1186.03 894.91 1188.35 917.71" fill="#8e8e8e" opacity="0" stroke-width="0"/>
    <polygon id="star-3" points="470.63 980.71 448.69 968.47 424.82 977.46 431.25 955.28 414.17 938.03 440.08 936.57 453.4 916.92 462.99 938.2 488.3 943.3 468.31 957.91 470.63 980.71" fill="#8e8e8e" opacity="0" stroke-width="0"/>
    <polygon id="star-2" points="1004.59 581.45 982.65 569.21 958.77 578.2 965.2 556.02 948.13 538.77 974.04 537.31 987.36 517.66 996.94 538.94 1022.25 544.04 1002.27 558.65 1004.59 581.45" fill="#8e8e8e" opacity="0" stroke-width="0"/>
    <polygon id="star-1" points="267.49 324.17 245.55 311.92 221.68 320.92 228.11 298.74 211.03 281.49 236.94 280.03 250.26 260.38 259.85 281.66 285.16 286.76 265.17 301.37 267.49 324.17" fill="#8e8e8e" opacity="0" stroke-width="0"/>
    <g id="starT-3" opacity="0">
      <rect id="starT-3-collide" opacity="0.1" x="431.81" y="737.89" width="38" height="30" fill="#dd7300" stroke-width="0"/>
      <polygon points="483.55 786.91 454.5 776.43 429.39 794.41 430.39 763.54 405.53 745.23 435.19 736.63 444.93 707.33 462.27 732.88 493.15 733.09 474.2 757.48 483.55 786.91" fill="#dd7300" stroke-width="0"/>
    </g>
    <g id="starT-2" opacity="0">
      <polygon points="1594.55 315.91 1565.5 305.43 1540.39 323.41 1541.39 292.54 1516.53 274.23 1546.19 265.63 1555.93 236.33 1573.27 261.88 1604.15 262.09 1585.2 286.48 1594.55 315.91" fill="#dd7300" stroke-width="0"/>
      <rect id="starT-2-collide" x="1542.81" y="266.89" width="38" height="30" fill="#dd7300" stroke-width="0"/>
    </g>
    <g id="starT-1" opacity="0">
      <polygon points="1407.55 891.91 1378.5 881.43 1353.39 899.41 1354.39 868.54 1329.53 850.23 1359.19 841.63 1368.93 812.33 1386.27 837.88 1417.15 838.09 1398.2 862.48 1407.55 891.91" fill="#dd7300" stroke-width="0"/>
      <rect id="starT-1-collide" x="1355.81" y="842.89" width="38" height="30" fill="#dd7300" stroke-width="0"/>
    </g>
    <g id="scene3-moon" opacity="0">
      <rect id="collide-box" x="342" y="117" width="88" height="76.83" fill="#000" stroke-width="0"/>
      <g id="moon-3">
        <circle cx="386.76" cy="148.78" r="64" fill="#fff" stroke="#231f20" stroke-miterlimit="10" stroke-width="9"/>
        <ellipse cx="383.67" cy="146.39" rx="58.02" ry="58.01" fill="#d6d6d6" stroke-width="0"/>
        <circle cx="368.04" cy="102.29" r="4.83" fill="#fff" stroke="#231f20" stroke-miterlimit="10" stroke-width="3"/>
        <circle cx="400.64" cy="157.84" r="8.45" fill="#fff" stroke="#231f20" stroke-miterlimit="10" stroke-width="3"/>
        <circle cx="409.1" cy="121.61" r="10.87" fill="#fff" stroke="#231f20" stroke-miterlimit="10" stroke-width="3"/>
        <circle cx="372.87" cy="190.44" r="10.87" fill="#fff" stroke="#231f20" stroke-miterlimit="10" stroke-width="3"/>
        <circle cx="352.94" cy="149.99" r="10.26" fill="#fff" stroke="#231f20" stroke-miterlimit="10" stroke-width="3"/>
        <circle cx="429.62" cy="165.08" r="7.25" fill="#fff" stroke="#231f20" stroke-miterlimit="10" stroke-width="3"/>
      </g>
    </g>
      <g id="collect-stars" opacity="0">
      <path d="m1300.25,985c-.4,6.68-3.72,10.02-9.96,10.02h-10.02c-2.72,0-5.07-.98-7.05-2.94-1.98-1.96-2.97-4.32-2.97-7.08v-24.96c0-2.72.97-5.07,2.91-7.05,1.94-1.98,4.31-2.97,7.11-2.97h10.02c6.28,0,9.6,3.34,9.96,10.02h-4.98c-.4-3.36-2.06-5.04-4.98-5.04h-5.04c-1.36,0-2.53.49-3.51,1.47s-1.47,2.17-1.47,3.57v24.96c0,1.36.49,2.54,1.47,3.54.98,1,2.15,1.5,3.51,1.5h5.04c2.96,0,4.62-1.68,4.98-5.04h4.98Z" fill="#fff" stroke-width="0"/>
      <path d="m1320.29,960.04h10.02c2.72,0,5.06.98,7.02,2.94,1.96,1.96,2.94,4.3,2.94,7.02v15c0,2.72-.98,5.07-2.94,7.05-1.96,1.98-4.3,2.97-7.02,2.97h-10.02c-2.72,0-5.07-.98-7.05-2.94-1.98-1.96-2.97-4.32-2.97-7.08v-15c0-2.72.99-5.06,2.97-7.02,1.98-1.96,4.33-2.94,7.05-2.94Zm0,9.96v15c0,1.36.49,2.54,1.47,3.54.98,1,2.15,1.5,3.51,1.5s2.59-.5,3.57-1.5c.98-1,1.47-2.18,1.47-3.54v-15c0-1.36-.49-2.53-1.47-3.51-.98-.98-2.17-1.47-3.57-1.47s-2.53.49-3.51,1.47-1.47,2.15-1.47,3.51Z" fill="#fff" stroke-width="0"/>
      <path d="m1350.29,995.02v-45h10.02v45h-10.02Z" fill="#fff" stroke-width="0"/>
      <path d="m1370.27,995.02v-45h10.02v45h-10.02Z" fill="#fff" stroke-width="0"/>
      <path d="m1420.25,980.02h-19.98v4.98c0,1.36.49,2.54,1.47,3.54.98,1,2.15,1.5,3.51,1.5h5.04c3.32,0,4.98-1.68,4.98-5.04h4.98c-.76,6.68-4.08,10.02-9.96,10.02h-10.02c-2.72,0-5.07-.98-7.05-2.94-1.98-1.96-2.97-4.32-2.97-7.08v-15c0-2.72.99-5.06,2.97-7.02,1.98-1.96,4.33-2.94,7.05-2.94h10.02c2.72,0,5.06.98,7.02,2.94,1.96,1.96,2.94,4.3,2.94,7.02v10.02Zm-19.98-4.98h10.02v-5.04c0-1.36-.49-2.53-1.47-3.51-.98-.98-2.17-1.47-3.57-1.47s-2.53.49-3.51,1.47-1.47,2.15-1.47,3.51v5.04Z" fill="#fff" stroke-width="0"/>
      <path d="m1455.29,970h-4.98c-.4-3.32-2.08-4.98-5.04-4.98-1.36,0-2.53.49-3.51,1.47s-1.47,2.15-1.47,3.51v15c0,1.36.49,2.54,1.47,3.54.98,1,2.15,1.5,3.51,1.5,2.96,0,4.64-1.68,5.04-5.04h4.98c-.4,6.68-3.74,10.02-10.02,10.02h-4.98c-2.72,0-5.07-.98-7.05-2.94-1.98-1.96-2.97-4.32-2.97-7.08v-15c0-2.72.99-5.06,2.97-7.02,1.98-1.96,4.33-2.94,7.05-2.94h4.98c6.32,0,9.66,3.32,10.02,9.96Z" fill="#fff" stroke-width="0"/>
      <path d="m1470.29,950.02h9.96v10.02h5.04v4.98h-5.04v19.98c0,1.64.54,2.89,1.62,3.75s2.06,1.29,2.94,1.29h.48v4.98h-5.04c-2.72,0-5.06-.98-7.02-2.94-1.96-1.96-2.94-4.32-2.94-7.08v-19.98h-5.04v-4.98h5.04v-10.02Z" fill="#fff" stroke-width="0"/>
      <path d="m1515.29,950.02h9.96v10.02h5.04v4.98h-5.04v19.98c0,1.64.54,2.89,1.62,3.75s2.06,1.29,2.94,1.29h.48v4.98h-5.04c-2.72,0-5.06-.98-7.02-2.94-1.96-1.96-2.94-4.32-2.94-7.08v-19.98h-5.04v-4.98h5.04v-10.02Z" fill="#fff" stroke-width="0"/>
      <path d="m1540.25,995.02v-45h10.02v15c.2-1.68.72-2.93,1.56-3.75.84-.82,1.98-1.23,3.42-1.23h5.04c2.72,0,5.06.98,7.02,2.94,1.96,1.96,2.94,4.3,2.94,7.02v25.02h-9.96v-25.02c0-1.36-.49-2.53-1.47-3.51-.98-.98-2.17-1.47-3.57-1.47s-2.53.49-3.51,1.47-1.47,2.15-1.47,3.51v25.02h-10.02Z" fill="#fff" stroke-width="0"/>
      <path d="m1610.27,980.02h-19.98v4.98c0,1.36.49,2.54,1.47,3.54.98,1,2.15,1.5,3.51,1.5h5.04c3.32,0,4.98-1.68,4.98-5.04h4.98c-.76,6.68-4.08,10.02-9.96,10.02h-10.02c-2.72,0-5.07-.98-7.05-2.94-1.98-1.96-2.97-4.32-2.97-7.08v-15c0-2.72.99-5.06,2.97-7.02,1.98-1.96,4.33-2.94,7.05-2.94h10.02c2.72,0,5.06.98,7.02,2.94,1.96,1.96,2.94,4.3,2.94,7.02v10.02Zm-19.98-4.98h10.02v-5.04c0-1.36-.49-2.53-1.47-3.51-.98-.98-2.17-1.47-3.57-1.47s-2.53.49-3.51,1.47-1.47,2.15-1.47,3.51v5.04Z" fill="#fff" stroke-width="0"/>
      <path d="m1660.3,970h-4.98c-.44-3.32-2.02-4.98-4.74-4.98-1.76,0-3.08.35-3.96,1.05-.88.7-1.32,1.73-1.32,3.09,0,1.44,2.42,3.46,7.26,6.06,3.96,2.12,6.24,3.88,6.84,5.28.6,1.4.9,2.9.9,4.5,0,2.76-.98,5.12-2.94,7.08-1.96,1.96-4.32,2.94-7.08,2.94h-4.98c-6.68,0-10.02-3.34-10.02-10.02h5.04c.4,3.36,1.96,5.04,4.68,5.04,1.8,0,3.14-.35,4.02-1.05.88-.7,1.32-1.75,1.32-3.15s-2.42-3.4-7.26-6c-3.96-2.12-6.25-3.88-6.87-5.28-.62-1.4-.93-2.9-.93-4.5,0-2.76.99-5.12,2.97-7.08,1.98-1.96,4.33-2.94,7.05-2.94h4.98c6.28,0,9.62,3.32,10.02,9.96Z" fill="#fff" stroke-width="0"/>
      <path d="m1675.3,950.02h9.96v10.02h5.04v4.98h-5.04v19.98c0,1.64.54,2.89,1.62,3.75s2.06,1.29,2.94,1.29h.48v4.98h-5.04c-2.72,0-5.06-.98-7.02-2.94-1.96-1.96-2.94-4.32-2.94-7.08v-19.98h-5.04v-4.98h5.04v-10.02Z" fill="#fff" stroke-width="0"/>
      <path d="m1720.3,975.04v-5.04c0-1.36-.49-2.53-1.47-3.51-.98-.98-2.17-1.47-3.57-1.47h-4.98c-2.96,0-4.62,1.66-4.98,4.98h-5.04c.8-6.64,4.14-9.96,10.02-9.96h10.02c2.72,0,5.06.98,7.02,2.94,1.96,1.96,2.94,4.3,2.94,7.02v25.02h-9.96v-4.98c-.4,3.32-2.08,4.98-5.04,4.98h-4.98c-2.72,0-5.07-.98-7.05-2.94-1.98-1.96-2.97-4.32-2.97-7.08s.99-5.06,2.97-7.02c1.98-1.96,4.33-2.94,7.05-2.94h10.02Zm0,4.98h-5.04c-1.36,0-2.53.49-3.51,1.47s-1.47,2.15-1.47,3.51.49,2.54,1.47,3.54c.98,1,2.15,1.5,3.51,1.5s2.59-.5,3.57-1.5c.98-1,1.47-2.18,1.47-3.54v-4.98Z" fill="#fff" stroke-width="0"/>
      <path d="m1750.3,995.02h-10.02v-34.98h10.02v9.96c.4-3.32,1.43-5.81,3.09-7.47s3.97-2.49,6.93-2.49h4.98v9.96h-10.02c-1.36,0-2.53.49-3.51,1.47s-1.47,2.17-1.47,3.57v19.98Z" fill="#fff" stroke-width="0"/>
      <path d="m1795.3,970h-4.98c-.44-3.32-2.02-4.98-4.74-4.98-1.76,0-3.08.35-3.96,1.05-.88.7-1.32,1.73-1.32,3.09,0,1.44,2.42,3.46,7.26,6.06,3.96,2.12,6.24,3.88,6.84,5.28.6,1.4.9,2.9.9,4.5,0,2.76-.98,5.12-2.94,7.08-1.96,1.96-4.32,2.94-7.08,2.94h-4.98c-6.68,0-10.02-3.34-10.02-10.02h5.04c.4,3.36,1.96,5.04,4.68,5.04,1.8,0,3.14-.35,4.02-1.05.88-.7,1.32-1.75,1.32-3.15s-2.42-3.4-7.26-6c-3.96-2.12-6.25-3.88-6.87-5.28-.62-1.4-.93-2.9-.93-4.5,0-2.76.99-5.12,2.97-7.08,1.98-1.96,4.33-2.94,7.05-2.94h4.98c6.28,0,9.62,3.32,10.02,9.96Z" fill="#fff" stroke-width="0"/>
      <path d="m1810.3,980.02v-30h9.96v30h-9.96Zm0,15v-10.02h9.96v10.02h-9.96Z" fill="#fff" stroke-width="0"/>
    </g>
  </g>
</svg>